<svg xmlns="http://www.w3.org/2000/svg" xmlns:xlink="http://www.w3.org/1999/xlink" width="500" zoomAndPan="magnify" viewBox="0 0 375 374.999991" height="500" preserveAspectRatio="xMidYMid meet" version="1.0"><defs><g/><clipPath id="1ef8514739"><path d="M 143 102 L 231 102 L 231 193.800781 L 143 193.800781 Z M 143 102 " clip-rule="nonzero"/></clipPath></defs><g clip-path="url(#1ef8514739)"><path fill="#dab88b" d="M 217.054688 159.304688 C 219.03125 159.304688 220.882812 158.78125 222.5 157.871094 L 222.5 182.488281 C 222.5 185.476562 220.039062 187.929688 217.054688 187.929688 L 192.214844 187.929688 C 189.230469 187.929688 186.777344 185.476562 186.777344 182.488281 L 186.777344 159.476562 C 187.308594 159.78125 214.304688 159.304688 217.054688 159.304688 Z M 202.597656 137.148438 L 154.136719 137.148438 C 148.121094 137.148438 143.269531 141.941406 143.078125 147.941406 C 143.078125 159.460938 143.078125 170.96875 143.078125 182.488281 C 143.078125 188.582031 148.046875 193.5625 154.136719 193.5625 L 217.054688 193.5625 C 223.144531 193.5625 228.113281 188.582031 228.113281 182.488281 C 228.113281 171.242188 228.734375 158.597656 228.089844 147.539062 C 227.960938 144.800781 226.101562 141.378906 224.132812 139.726562 C 233.558594 135.023438 232.085938 120.992188 221.824219 118.414062 L 161.503906 103.242188 C 146.953125 99.582031 141.386719 121.757812 155.945312 125.421875 Z M 170.449219 123.269531 L 157.3125 119.96875 C 149.921875 118.109375 152.730469 106.832031 160.144531 108.699219 L 164.921875 109.894531 Z M 188.273438 127.757812 L 177.222656 124.980469 L 171.6875 111.601562 L 182.738281 114.378906 Z M 206.089844 132.234375 L 195.039062 129.457031 L 189.503906 116.078125 L 200.554688 118.859375 Z M 159.695312 142.777344 L 167.777344 153.675781 L 154.136719 153.675781 C 149.375 153.675781 146.832031 147.851562 150.300781 144.382812 C 152.714844 141.957031 156.695312 142.777344 159.695312 142.777344 Z M 174.753906 153.675781 L 166.675781 142.777344 L 178.066406 142.777344 L 186.152344 153.675781 Z M 196.4375 142.777344 L 204.523438 153.675781 L 193.125 153.675781 L 185.046875 142.777344 Z M 211.496094 153.675781 L 203.421875 142.777344 L 217.054688 142.777344 C 219.941406 142.777344 222.433594 145.140625 222.492188 148.085938 C 223.039062 150.808594 219.828125 153.675781 217.054688 153.675781 Z M 201.957031 166.097656 L 201.128906 168.699219 L 198.394531 168.691406 C 195.667969 168.691406 194.582031 172.183594 196.75 173.757812 L 198.957031 175.367188 L 198.101562 177.96875 C 197.234375 180.652344 200.445312 182.777344 202.582031 180.980469 L 204.625 179.484375 L 206.839844 181.101562 C 209.035156 182.695312 211.96875 180.523438 211.140625 177.96875 L 210.304688 175.367188 L 212.507812 173.765625 C 214.800781 172.105469 213.449219 168.488281 210.667969 168.691406 L 208.132812 168.699219 L 207.296875 166.097656 C 206.460938 163.488281 202.785156 163.527344 201.957031 166.097656 Z M 217.601562 135.128906 L 212.863281 133.933594 L 207.328125 120.558594 L 220.472656 123.867188 C 227.847656 125.71875 225.128906 136.90625 217.601562 135.128906 " fill-opacity="1" fill-rule="nonzero"/></g><g fill="#dab88b" fill-opacity="1"><g transform="translate(154.199299, 235.049956)"><g><path d="M 3.0625 -25.203125 L 6.125 -25.203125 L 6.125 -13.140625 L 17.28125 -25.203125 L 20.875 -25.203125 L 9.359375 -12.78125 L 21.421875 0 L 17.8125 0 L 6.125 -12.421875 L 6.125 0 L 3.0625 0 Z M 3.0625 -25.203125 "/></g></g></g><g fill="#dab88b" fill-opacity="1"><g transform="translate(174.359345, 235.049956)"><g><path d="M 2.515625 -18.71875 L 5.21875 -18.71875 L 5.21875 0 L 2.515625 0 Z M 3.890625 -21.421875 C 3.359375 -21.421875 2.90625 -21.597656 2.53125 -21.953125 C 2.164062 -22.316406 1.984375 -22.765625 1.984375 -23.296875 C 1.984375 -23.816406 2.160156 -24.265625 2.515625 -24.640625 C 2.878906 -25.015625 3.335938 -25.203125 3.890625 -25.203125 C 4.421875 -25.203125 4.863281 -25.015625 5.21875 -24.640625 C 5.582031 -24.265625 5.765625 -23.816406 5.765625 -23.296875 C 5.765625 -22.785156 5.582031 -22.34375 5.21875 -21.96875 C 4.863281 -21.601562 4.421875 -21.421875 3.890625 -21.421875 Z M 3.890625 -21.421875 "/></g></g></g><g fill="#dab88b" fill-opacity="1"><g transform="translate(181.199361, 235.049956)"><g><path d="M 2.515625 -18.71875 L 4.6875 -18.71875 L 5.046875 -16.203125 L 5.21875 -16.203125 C 5.84375 -17.273438 6.648438 -18.019531 7.640625 -18.4375 C 8.640625 -18.863281 9.632812 -19.078125 10.625 -19.078125 C 11.601562 -19.078125 12.519531 -18.898438 13.375 -18.546875 C 14.226562 -18.203125 14.972656 -17.707031 15.609375 -17.0625 C 16.242188 -16.414062 16.738281 -15.625 17.09375 -14.6875 C 17.457031 -13.75 17.640625 -12.691406 17.640625 -11.515625 L 17.640625 0 L 14.9375 0 L 14.9375 -11.515625 C 14.9375 -13.148438 14.5 -14.398438 13.625 -15.265625 C 12.75 -16.128906 11.628906 -16.5625 10.265625 -16.5625 C 9.546875 -16.5625 8.878906 -16.421875 8.265625 -16.140625 C 7.648438 -15.867188 7.113281 -15.503906 6.65625 -15.046875 C 6.195312 -14.585938 5.84375 -14.050781 5.59375 -13.4375 C 5.34375 -12.832031 5.21875 -12.191406 5.21875 -11.515625 L 5.21875 0 L 2.515625 0 Z M 2.515625 -18.71875 "/></g></g></g><g fill="#dab88b" fill-opacity="1"><g transform="translate(200.279404, 235.049956)"><g><path d="M 10.265625 0.359375 C 8.992188 0.359375 7.828125 0.148438 6.765625 -0.265625 C 5.710938 -0.691406 4.804688 -1.316406 4.046875 -2.140625 C 3.296875 -2.972656 2.703125 -3.988281 2.265625 -5.1875 C 1.835938 -6.382812 1.625 -7.773438 1.625 -9.359375 C 1.625 -10.941406 1.835938 -12.332031 2.265625 -13.53125 C 2.703125 -14.738281 3.296875 -15.753906 4.046875 -16.578125 C 4.804688 -17.398438 5.710938 -18.019531 6.765625 -18.4375 C 7.828125 -18.863281 8.992188 -19.078125 10.265625 -19.078125 C 11.503906 -19.078125 12.660156 -18.863281 13.734375 -18.4375 C 14.804688 -18.019531 15.71875 -17.398438 16.46875 -16.578125 C 17.226562 -15.753906 17.820312 -14.738281 18.25 -13.53125 C 18.6875 -12.332031 18.90625 -10.941406 18.90625 -9.359375 C 18.90625 -7.773438 18.6875 -6.382812 18.25 -5.1875 C 17.820312 -3.988281 17.226562 -2.972656 16.46875 -2.140625 C 15.71875 -1.316406 14.804688 -0.691406 13.734375 -0.265625 C 12.660156 0.148438 11.503906 0.359375 10.265625 0.359375 Z M 10.265625 -2.15625 C 11.128906 -2.15625 11.921875 -2.3125 12.640625 -2.625 C 13.359375 -2.9375 13.976562 -3.398438 14.5 -4.015625 C 15.03125 -4.628906 15.445312 -5.378906 15.75 -6.265625 C 16.050781 -7.148438 16.203125 -8.179688 16.203125 -9.359375 C 16.203125 -10.535156 16.050781 -11.566406 15.75 -12.453125 C 15.445312 -13.335938 15.03125 -14.085938 14.5 -14.703125 C 13.976562 -15.316406 13.359375 -15.78125 12.640625 -16.09375 C 11.921875 -16.40625 11.128906 -16.5625 10.265625 -16.5625 C 9.398438 -16.5625 8.601562 -16.40625 7.875 -16.09375 C 7.15625 -15.78125 6.53125 -15.316406 6 -14.703125 C 5.476562 -14.085938 5.066406 -13.335938 4.765625 -12.453125 C 4.460938 -11.566406 4.3125 -10.535156 4.3125 -9.359375 C 4.3125 -8.179688 4.460938 -7.148438 4.765625 -6.265625 C 5.066406 -5.378906 5.476562 -4.628906 6 -4.015625 C 6.53125 -3.398438 7.15625 -2.9375 7.875 -2.625 C 8.601562 -2.3125 9.398438 -2.15625 10.265625 -2.15625 Z M 10.265625 -2.15625 "/></g></g></g><g fill="#dab88b" fill-opacity="1"><g transform="translate(127.738364, 267.299954)"><g><path d="M 10.625 0.359375 C 9.175781 0.359375 7.875 0.140625 6.71875 -0.296875 C 5.570312 -0.742188 4.59375 -1.382812 3.78125 -2.21875 C 2.96875 -3.0625 2.34375 -4.09375 1.90625 -5.3125 C 1.476562 -6.539062 1.265625 -7.953125 1.265625 -9.546875 C 1.265625 -11.128906 1.476562 -12.53125 1.90625 -13.75 C 2.34375 -14.976562 2.96875 -16.007812 3.78125 -16.84375 C 4.59375 -17.6875 5.570312 -18.328125 6.71875 -18.765625 C 7.875 -19.210938 9.175781 -19.4375 10.625 -19.4375 C 11.96875 -19.4375 13.140625 -19.25 14.140625 -18.875 C 15.148438 -18.507812 16.007812 -18.007812 16.71875 -17.375 C 17.425781 -16.738281 18 -16.003906 18.4375 -15.171875 C 18.882812 -14.347656 19.21875 -13.488281 19.4375 -12.59375 L 14.40625 -12.59375 C 14.039062 -13.320312 13.566406 -13.894531 12.984375 -14.3125 C 12.410156 -14.726562 11.625 -14.9375 10.625 -14.9375 C 9.351562 -14.9375 8.3125 -14.484375 7.5 -13.578125 C 6.695312 -12.679688 6.296875 -11.335938 6.296875 -9.546875 C 6.296875 -7.742188 6.695312 -6.390625 7.5 -5.484375 C 8.3125 -4.585938 9.351562 -4.140625 10.625 -4.140625 C 11.625 -4.140625 12.410156 -4.347656 12.984375 -4.765625 C 13.566406 -5.191406 14.039062 -5.765625 14.40625 -6.484375 L 19.4375 -6.484375 C 19.21875 -5.566406 18.882812 -4.695312 18.4375 -3.875 C 18 -3.0625 17.425781 -2.335938 16.71875 -1.703125 C 16.007812 -1.066406 15.148438 -0.5625 14.140625 -0.1875 C 13.140625 0.175781 11.96875 0.359375 10.625 0.359375 Z M 10.625 0.359375 "/></g></g></g><g fill="#dab88b" fill-opacity="1"><g transform="translate(147.358408, 267.299954)"><g><path d="M 2.15625 -19.078125 L 7.203125 -19.078125 L 7.203125 0 L 2.15625 0 Z M 4.6875 -21.0625 C 3.863281 -21.0625 3.175781 -21.335938 2.625 -21.890625 C 2.070312 -22.441406 1.796875 -23.125 1.796875 -23.9375 C 1.796875 -24.75 2.070312 -25.429688 2.625 -25.984375 C 3.175781 -26.535156 3.863281 -26.8125 4.6875 -26.8125 C 5.5 -26.8125 6.179688 -26.535156 6.734375 -25.984375 C 7.285156 -25.429688 7.5625 -24.75 7.5625 -23.9375 C 7.5625 -23.125 7.285156 -22.441406 6.734375 -21.890625 C 6.179688 -21.335938 5.5 -21.0625 4.6875 -21.0625 Z M 4.6875 -21.0625 "/></g></g></g><g fill="#dab88b" fill-opacity="1"><g transform="translate(155.818427, 267.299954)"><g><path d="M 2.15625 -19.078125 L 6.484375 -19.078125 L 7.015625 -16.921875 L 7.203125 -16.921875 C 7.828125 -17.734375 8.570312 -18.351562 9.4375 -18.78125 C 10.300781 -19.21875 11.234375 -19.4375 12.234375 -19.4375 C 13.265625 -19.4375 14.210938 -19.257812 15.078125 -18.90625 C 15.941406 -18.5625 16.679688 -18.050781 17.296875 -17.375 C 17.910156 -16.707031 18.390625 -15.898438 18.734375 -14.953125 C 19.085938 -14.003906 19.265625 -12.921875 19.265625 -11.703125 L 19.265625 0 L 14.21875 0 L 14.21875 -10.984375 C 14.21875 -12.253906 13.914062 -13.226562 13.3125 -13.90625 C 12.71875 -14.59375 11.878906 -14.9375 10.796875 -14.9375 C 9.722656 -14.9375 8.851562 -14.570312 8.1875 -13.84375 C 7.53125 -13.113281 7.203125 -12.160156 7.203125 -10.984375 L 7.203125 0 L 2.15625 0 Z M 2.15625 -19.078125 "/></g></g></g><g fill="#dab88b" fill-opacity="1"><g transform="translate(176.158462, 267.299954)"><g><path d="M 10.625 0.359375 C 9.175781 0.359375 7.875 0.140625 6.71875 -0.296875 C 5.570312 -0.742188 4.59375 -1.382812 3.78125 -2.21875 C 2.96875 -3.0625 2.34375 -4.09375 1.90625 -5.3125 C 1.476562 -6.539062 1.265625 -7.953125 1.265625 -9.546875 C 1.265625 -11.128906 1.476562 -12.53125 1.90625 -13.75 C 2.34375 -14.976562 2.96875 -16.007812 3.78125 -16.84375 C 4.59375 -17.6875 5.570312 -18.328125 6.71875 -18.765625 C 7.875 -19.210938 9.175781 -19.4375 10.625 -19.4375 C 12.007812 -19.4375 13.265625 -19.203125 14.390625 -18.734375 C 15.523438 -18.265625 16.492188 -17.601562 17.296875 -16.75 C 18.097656 -15.90625 18.710938 -14.898438 19.140625 -13.734375 C 19.578125 -12.566406 19.796875 -11.289062 19.796875 -9.90625 C 19.796875 -9.632812 19.785156 -9.378906 19.765625 -9.140625 C 19.742188 -8.898438 19.71875 -8.6875 19.6875 -8.5 C 19.664062 -8.28125 19.644531 -8.085938 19.625 -7.921875 L 6.484375 -7.921875 C 6.671875 -6.835938 7.085938 -5.9375 7.734375 -5.21875 C 8.390625 -4.5 9.351562 -4.140625 10.625 -4.140625 C 11.601562 -4.140625 12.328125 -4.300781 12.796875 -4.625 C 13.265625 -4.945312 13.679688 -5.382812 14.046875 -5.9375 L 19.4375 -5.9375 C 19.21875 -5.125 18.882812 -4.335938 18.4375 -3.578125 C 18 -2.828125 17.425781 -2.15625 16.71875 -1.5625 C 16.007812 -0.976562 15.148438 -0.507812 14.140625 -0.15625 C 13.140625 0.1875 11.96875 0.359375 10.625 0.359375 Z M 14.578125 -11.703125 C 14.484375 -12.109375 14.332031 -12.503906 14.125 -12.890625 C 13.925781 -13.273438 13.664062 -13.625 13.34375 -13.9375 C 13.019531 -14.25 12.628906 -14.492188 12.171875 -14.671875 C 11.710938 -14.847656 11.195312 -14.9375 10.625 -14.9375 C 9.445312 -14.9375 8.523438 -14.625 7.859375 -14 C 7.203125 -13.375 6.742188 -12.609375 6.484375 -11.703125 Z M 14.578125 -11.703125 "/></g></g></g><g fill="#dab88b" fill-opacity="1"><g transform="translate(196.31851, 267.299954)"><g><path d="M 2.15625 -19.078125 L 6.484375 -19.078125 L 7.015625 -16.921875 L 7.203125 -16.921875 C 7.753906 -17.734375 8.390625 -18.351562 9.109375 -18.78125 C 9.828125 -19.21875 10.691406 -19.4375 11.703125 -19.4375 C 12.515625 -19.4375 13.210938 -19.328125 13.796875 -19.109375 C 14.390625 -18.898438 14.894531 -18.640625 15.3125 -18.328125 C 15.738281 -18.015625 16.078125 -17.675781 16.328125 -17.3125 C 16.578125 -16.957031 16.773438 -16.644531 16.921875 -16.375 L 17.09375 -16.375 C 17.238281 -16.644531 17.457031 -16.957031 17.75 -17.3125 C 18.039062 -17.675781 18.425781 -18.015625 18.90625 -18.328125 C 19.382812 -18.640625 19.945312 -18.898438 20.59375 -19.109375 C 21.238281 -19.328125 21.992188 -19.4375 22.859375 -19.4375 C 23.890625 -19.4375 24.835938 -19.257812 25.703125 -18.90625 C 26.566406 -18.5625 27.304688 -18.066406 27.921875 -17.421875 C 28.535156 -16.773438 29.015625 -15.984375 29.359375 -15.046875 C 29.703125 -14.109375 29.875 -13.050781 29.875 -11.875 L 29.875 0 L 24.84375 0 L 24.84375 -11.15625 C 24.84375 -11.832031 24.757812 -12.410156 24.59375 -12.890625 C 24.425781 -13.367188 24.195312 -13.757812 23.90625 -14.0625 C 23.613281 -14.363281 23.269531 -14.582031 22.875 -14.71875 C 22.476562 -14.863281 22.050781 -14.9375 21.59375 -14.9375 C 20.78125 -14.9375 20.066406 -14.625 19.453125 -14 C 18.847656 -13.375 18.546875 -12.425781 18.546875 -11.15625 L 18.546875 0 L 13.5 0 L 13.5 -11.15625 C 13.5 -11.832031 13.414062 -12.410156 13.25 -12.890625 C 13.082031 -13.367188 12.851562 -13.757812 12.5625 -14.0625 C 12.269531 -14.363281 11.925781 -14.582031 11.53125 -14.71875 C 11.132812 -14.863281 10.710938 -14.9375 10.265625 -14.9375 C 9.441406 -14.9375 8.722656 -14.597656 8.109375 -13.921875 C 7.503906 -13.253906 7.203125 -12.332031 7.203125 -11.15625 L 7.203125 0 L 2.15625 0 Z M 2.15625 -19.078125 "/></g></g></g><g fill="#dab88b" fill-opacity="1"><g transform="translate(227.278576, 267.299954)"><g><path d="M 7.734375 0.359375 C 6.703125 0.359375 5.769531 0.207031 4.9375 -0.09375 C 4.113281 -0.394531 3.414062 -0.804688 2.84375 -1.328125 C 2.269531 -1.859375 1.832031 -2.484375 1.53125 -3.203125 C 1.226562 -3.921875 1.078125 -4.710938 1.078125 -5.578125 C 1.078125 -6.441406 1.234375 -7.234375 1.546875 -7.953125 C 1.859375 -8.671875 2.328125 -9.296875 2.953125 -9.828125 C 3.578125 -10.359375 4.34375 -10.769531 5.25 -11.0625 C 6.164062 -11.363281 7.234375 -11.515625 8.453125 -11.515625 L 12.953125 -11.515625 L 12.953125 -12.421875 C 12.953125 -13.328125 12.664062 -14.003906 12.09375 -14.453125 C 11.519531 -14.898438 10.726562 -15.125 9.71875 -15.125 C 9 -15.125 8.382812 -14.96875 7.875 -14.65625 C 7.375 -14.34375 7.03125 -13.957031 6.84375 -13.5 L 1.796875 -13.5 C 1.960938 -14.269531 2.253906 -15.007812 2.671875 -15.71875 C 3.097656 -16.425781 3.640625 -17.054688 4.296875 -17.609375 C 4.960938 -18.160156 5.753906 -18.601562 6.671875 -18.9375 C 7.597656 -19.269531 8.675781 -19.4375 9.90625 -19.4375 C 12.445312 -19.4375 14.429688 -18.820312 15.859375 -17.59375 C 17.285156 -16.375 18 -14.585938 18 -12.234375 L 18 0 L 13.6875 0 L 13.140625 -2.15625 L 12.953125 -2.15625 C 12.765625 -1.894531 12.523438 -1.613281 12.234375 -1.3125 C 11.953125 -1.007812 11.59375 -0.734375 11.15625 -0.484375 C 10.726562 -0.234375 10.226562 -0.03125 9.65625 0.125 C 9.09375 0.28125 8.453125 0.359375 7.734375 0.359375 Z M 9 -3.78125 C 10.175781 -3.78125 11.128906 -4.109375 11.859375 -4.765625 C 12.585938 -5.429688 12.953125 -6.300781 12.953125 -7.375 L 12.953125 -7.921875 L 8.640625 -7.921875 C 7.722656 -7.921875 7.070312 -7.726562 6.6875 -7.34375 C 6.3125 -6.957031 6.125 -6.488281 6.125 -5.9375 C 6.125 -5.3125 6.347656 -4.796875 6.796875 -4.390625 C 7.253906 -3.984375 7.988281 -3.78125 9 -3.78125 Z M 9 -3.78125 "/></g></g></g></svg>