<svg xmlns="http://www.w3.org/2000/svg" xmlns:xlink="http://www.w3.org/1999/xlink" width="500" zoomAndPan="magnify" viewBox="0 0 375 374.999991" height="500" preserveAspectRatio="xMidYMid meet" version="1.0"><defs><clipPath id="cd54256cc3"><path d="M 63.660156 95.320312 L 311.160156 95.320312 L 311.160156 264 L 63.660156 264 Z M 63.660156 95.320312 " clip-rule="nonzero"/></clipPath></defs><rect x="-37.5" width="450" fill="#ffffff" y="-37.499999" height="449.999989" fill-opacity="1"/><rect x="-37.5" width="450" fill="#ffffff" y="-37.499999" height="449.999989" fill-opacity="1"/><rect x="-37.5" width="450" fill="#ffffff" y="-37.499999" height="449.999989" fill-opacity="1"/><path fill="#6d6e71" d="M 132.453125 230.085938 L 135.5625 229.675781 C 134.140625 227.707031 132.902344 225.625 131.851562 223.4375 C 127.613281 224.957031 122.335938 227.640625 119.660156 232.046875 C 114.84375 240.039062 118.960938 250.046875 119 250.148438 C 119.027344 250.207031 119.046875 250.269531 119.0625 250.335938 L 142.402344 250.335938 L 165.636719 246 C 166.226562 245.90625 166.800781 245.753906 167.363281 245.546875 C 167.921875 245.339844 168.457031 245.082031 168.96875 244.769531 C 169.476562 244.457031 169.953125 244.09375 170.390625 243.6875 C 170.828125 243.28125 171.222656 242.835938 171.574219 242.351562 C 171.925781 241.867188 172.226562 241.351562 172.476562 240.808594 C 172.726562 240.265625 172.921875 239.703125 173.0625 239.117188 C 173.203125 238.535156 173.285156 237.945312 173.308594 237.347656 C 173.332031 236.75 173.296875 236.152344 173.203125 235.5625 C 173.109375 234.96875 172.960938 234.390625 172.753906 233.832031 C 172.546875 233.269531 172.285156 232.730469 171.972656 232.21875 C 171.664062 231.710938 171.304688 231.234375 170.898438 230.792969 C 170.492188 230.355469 170.046875 229.957031 169.566406 229.605469 C 169.082031 229.253906 168.570312 228.953125 168.027344 228.699219 C 167.484375 228.449219 166.921875 228.253906 166.339844 228.113281 C 165.757812 227.972656 165.171875 227.894531 164.574219 227.867188 C 163.976562 227.84375 163.382812 227.878906 162.792969 227.972656 L 132.722656 231.925781 C 132.476562 231.941406 132.257812 231.867188 132.070312 231.710938 C 131.878906 231.554688 131.765625 231.351562 131.734375 231.105469 C 131.703125 230.859375 131.757812 230.636719 131.902344 230.4375 C 132.046875 230.234375 132.238281 230.109375 132.480469 230.0625 Z M 132.453125 230.085938 " fill-opacity="1" fill-rule="nonzero"/><path fill="#ed1c24" d="M 203.75 98.492188 L 150.855469 98.492188 L 136.921875 177.664062 L 217.683594 177.664062 Z M 203.75 98.492188 " fill-opacity="1" fill-rule="nonzero"/><path fill="#d30f1e" d="M 138.683594 169.679688 L 137.371094 177.125 L 218.132812 177.125 L 204.199219 97.976562 L 201.449219 97.976562 L 212.121094 170.910156 C 212.121094 170.910156 163.566406 169.308594 138.683594 169.679688 Z M 138.683594 169.679688 " fill-opacity="1" fill-rule="nonzero"/><path fill="#ffffff" d="M 133.21875 221.972656 C 134.375 224.484375 135.78125 226.847656 137.4375 229.0625 C 137.511719 229.164062 137.5625 229.273438 137.59375 229.390625 L 155.019531 227.101562 C 154.980469 227.027344 154.929688 226.957031 154.894531 226.878906 C 152.828125 222.703125 153.578125 217.625 156.679688 214.816406 C 159.363281 212.382812 163.144531 211.988281 166.140625 211.917969 L 167.757812 211.917969 C 170.394531 211.894531 172.882812 211.875 175.164062 210.988281 C 177.6875 210.007812 179.957031 207.441406 179.414062 204.816406 C 179.378906 204.625 179.402344 204.4375 179.480469 204.257812 C 179.5625 204.074219 179.6875 203.933594 179.859375 203.835938 C 180.027344 203.734375 180.210938 203.691406 180.410156 203.707031 C 180.605469 203.722656 180.777344 203.792969 180.929688 203.921875 C 181.082031 203.792969 181.257812 203.722656 181.453125 203.707031 C 181.648438 203.691406 181.832031 203.734375 182.003906 203.835938 C 182.171875 203.933594 182.296875 204.074219 182.378906 204.257812 C 182.460938 204.4375 182.484375 204.625 182.445312 204.816406 C 181.90625 207.4375 184.183594 210.007812 186.699219 210.988281 C 188.976562 211.875 191.46875 211.894531 194.105469 211.917969 L 195.71875 211.917969 C 198.714844 211.988281 202.5 212.382812 205.179688 214.816406 C 208.28125 217.625 209.035156 222.703125 206.96875 226.875 C 205.265625 230.324219 201.882812 233.074219 197.449219 234.613281 C 193.578125 235.957031 189.496094 236.261719 185.550781 236.554688 L 176.300781 236.554688 L 174.941406 236.449219 C 174.910156 236.476562 174.878906 236.5 174.84375 236.523438 C 174.875 237.179688 174.851562 237.835938 174.765625 238.488281 C 174.679688 239.140625 174.539062 239.78125 174.339844 240.40625 C 174.140625 241.035156 173.890625 241.640625 173.582031 242.222656 C 173.273438 242.804688 172.917969 243.351562 172.515625 243.871094 C 172.109375 244.390625 171.660156 244.867188 171.171875 245.304688 C 170.679688 245.742188 170.15625 246.132812 169.597656 246.476562 C 169.035156 246.820312 168.449219 247.109375 167.839844 247.347656 C 167.226562 247.585938 166.597656 247.769531 165.953125 247.894531 L 152.636719 250.378906 L 184.9375 250.378906 C 195.441406 250.292969 205.679688 248.355469 214.546875 244.703125 C 214.78125 244.613281 215.015625 244.621094 215.25 244.722656 C 215.480469 244.824219 215.644531 244.996094 215.742188 245.230469 C 215.835938 245.464844 215.839844 245.699219 215.746094 245.933594 C 215.652344 246.171875 215.488281 246.339844 215.257812 246.445312 C 211.074219 248.144531 206.773438 249.457031 202.355469 250.378906 L 277.902344 250.378906 C 278.101562 250.085938 278.285156 249.78125 278.453125 249.464844 C 278.617188 249.148438 278.765625 248.824219 278.890625 248.492188 C 279.019531 248.160156 279.128906 247.820312 279.21875 247.472656 C 279.304688 247.128906 279.375 246.777344 279.421875 246.425781 C 279.46875 246.070312 279.496094 245.714844 279.503906 245.359375 C 279.511719 245.003906 279.496094 244.648438 279.460938 244.292969 C 279.425781 243.9375 279.371094 243.585938 279.296875 243.234375 C 279.21875 242.886719 279.125 242.542969 279.007812 242.207031 C 278.890625 241.867188 278.757812 241.539062 278.605469 241.21875 C 278.449219 240.894531 278.277344 240.582031 278.085938 240.28125 C 277.898438 239.980469 277.691406 239.691406 277.464844 239.414062 C 277.242188 239.136719 277.003906 238.875 276.746094 238.625 C 276.492188 238.375 276.222656 238.140625 275.941406 237.921875 C 275.660156 237.703125 275.367188 237.503906 275.0625 237.320312 C 274.757812 237.136719 274.441406 236.972656 274.117188 236.824219 C 273.792969 236.679688 273.460938 236.550781 273.121094 236.441406 L 241.046875 226.195312 C 240.925781 226.160156 240.816406 226.097656 240.71875 226.007812 C 238.304688 229.90625 235.367188 233.359375 231.90625 236.363281 C 231.730469 236.515625 231.523438 236.59375 231.289062 236.59375 C 231.09375 236.59375 230.917969 236.539062 230.753906 236.425781 C 230.59375 236.3125 230.480469 236.167969 230.410156 235.984375 C 230.34375 235.800781 230.332031 235.613281 230.382812 235.421875 C 230.429688 235.230469 230.527344 235.074219 230.671875 234.941406 C 239.992188 226.785156 244.917969 216.144531 244.917969 204.164062 C 244.90625 199.738281 244.3125 195.386719 243.136719 191.121094 C 241.960938 186.851562 240.242188 182.816406 237.980469 179.011719 L 136.394531 179.011719 C 134.136719 182.816406 132.417969 186.847656 131.242188 191.117188 C 130.066406 195.382812 129.472656 199.726562 129.460938 204.152344 C 129.398438 210.308594 130.617188 216.191406 133.125 221.808594 C 133.160156 221.859375 133.191406 221.914062 133.21875 221.972656 Z M 136.652344 187.789062 C 136.652344 187.53125 136.746094 187.308594 136.925781 187.128906 C 137.109375 186.945312 137.332031 186.851562 137.589844 186.851562 L 223.15625 186.851562 C 223.417969 186.851562 223.636719 186.941406 223.820312 187.125 C 224.003906 187.308594 224.097656 187.53125 224.097656 187.789062 L 224.097656 199.238281 C 224.097656 199.789062 224.042969 200.335938 223.933594 200.878906 C 223.824219 201.421875 223.667969 201.949219 223.453125 202.457031 C 223.242188 202.96875 222.984375 203.453125 222.679688 203.914062 C 222.371094 204.375 222.023438 204.800781 221.632812 205.191406 C 221.246094 205.582031 220.820312 205.929688 220.363281 206.238281 C 219.902344 206.546875 219.417969 206.804688 218.910156 207.019531 C 218.402344 207.230469 217.875 207.390625 217.335938 207.5 C 216.792969 207.609375 216.25 207.664062 215.695312 207.664062 L 197.140625 207.664062 C 196.589844 207.664062 196.042969 207.609375 195.5 207.5 C 194.960938 207.390625 194.4375 207.230469 193.925781 207.019531 C 193.417969 206.804688 192.933594 206.546875 192.476562 206.238281 C 192.015625 205.929688 191.59375 205.582031 191.203125 205.191406 C 190.8125 204.800781 190.464844 204.375 190.160156 203.914062 C 189.851562 203.453125 189.59375 202.96875 189.382812 202.457031 C 189.171875 201.949219 189.011719 201.421875 188.902344 200.878906 C 188.792969 200.335938 188.742188 199.789062 188.738281 199.238281 L 188.738281 195.691406 L 172.132812 195.691406 L 172.132812 199.238281 C 172.132812 199.789062 172.078125 200.339844 171.96875 200.882812 C 171.863281 201.425781 171.703125 201.953125 171.492188 202.464844 C 171.277344 202.976562 171.019531 203.464844 170.710938 203.925781 C 170.40625 204.386719 170.058594 204.8125 169.667969 205.203125 C 169.277344 205.59375 168.851562 205.945312 168.390625 206.253906 C 167.933594 206.5625 167.449219 206.820312 166.9375 207.035156 C 166.425781 207.246094 165.902344 207.40625 165.359375 207.515625 C 164.816406 207.625 164.269531 207.679688 163.71875 207.679688 L 145.070312 207.679688 C 144.515625 207.679688 143.96875 207.625 143.425781 207.515625 C 142.886719 207.40625 142.359375 207.246094 141.847656 207.035156 C 141.339844 206.820312 140.855469 206.5625 140.394531 206.253906 C 139.933594 205.945312 139.511719 205.59375 139.121094 205.203125 C 138.730469 204.8125 138.378906 204.386719 138.074219 203.925781 C 137.765625 203.464844 137.507812 202.976562 137.296875 202.464844 C 137.082031 201.953125 136.925781 201.425781 136.816406 200.882812 C 136.707031 200.339844 136.652344 199.789062 136.652344 199.238281 Z M 136.652344 187.789062 " fill-opacity="1" fill-rule="nonzero"/><path fill="#e6e7e8" d="M 223.15625 186.851562 C 223.417969 186.851562 223.636719 186.941406 223.820312 187.125 C 224.003906 187.308594 224.097656 187.53125 224.097656 187.789062 L 224.097656 199.238281 C 224.097656 200.949219 223.621094 202.515625 222.664062 203.9375 C 221.582031 221.207031 211.929688 241.308594 173.347656 242.617188 C 172.554688 243.992188 171.511719 245.136719 170.222656 246.058594 C 168.933594 246.980469 167.507812 247.589844 165.953125 247.894531 L 152.636719 250.378906 L 184.9375 250.378906 C 195.441406 250.292969 205.679688 248.355469 214.546875 244.703125 C 214.78125 244.613281 215.015625 244.621094 215.25 244.722656 C 215.480469 244.824219 215.644531 244.996094 215.742188 245.230469 C 215.835938 245.464844 215.839844 245.699219 215.746094 245.933594 C 215.652344 246.171875 215.488281 246.339844 215.257812 246.445312 C 211.074219 248.144531 206.773438 249.457031 202.355469 250.378906 L 231.257812 250.378906 L 239.847656 244.210938 C 239.847656 244.210938 243.4375 235.601562 246.671875 228.003906 L 241.039062 226.207031 C 240.914062 226.167969 240.804688 226.105469 240.710938 226.019531 C 238.292969 229.917969 235.355469 233.367188 231.894531 236.371094 C 231.71875 236.523438 231.511719 236.601562 231.28125 236.605469 C 231.085938 236.605469 230.90625 236.546875 230.746094 236.4375 C 230.585938 236.324219 230.46875 236.175781 230.402344 235.992188 C 230.332031 235.808594 230.324219 235.621094 230.371094 235.433594 C 230.417969 235.242188 230.515625 235.082031 230.664062 234.953125 C 239.984375 226.792969 244.90625 216.152344 244.90625 204.175781 C 244.898438 199.746094 244.308594 195.394531 243.132812 191.125 C 241.957031 186.855469 240.242188 182.820312 237.980469 179.011719 L 219.234375 179.011719 C 220.109375 181.582031 220.808594 184.199219 221.335938 186.863281 Z M 223.15625 186.851562 " fill-opacity="1" fill-rule="nonzero"/><path fill="#ffe6bc" d="M 145.070312 205.78125 L 163.71875 205.78125 C 164.144531 205.777344 164.570312 205.734375 164.988281 205.644531 C 165.40625 205.558594 165.816406 205.433594 166.210938 205.269531 C 166.605469 205.101562 166.980469 204.898438 167.335938 204.660156 C 167.691406 204.421875 168.019531 204.148438 168.320312 203.84375 C 168.625 203.539062 168.894531 203.210938 169.132812 202.851562 C 169.371094 202.496094 169.570312 202.117188 169.734375 201.722656 C 169.898438 201.324219 170.023438 200.917969 170.109375 200.496094 C 170.191406 200.074219 170.234375 199.652344 170.238281 199.222656 L 170.238281 194.75 C 170.238281 194.605469 170.265625 194.46875 170.328125 194.339844 C 170.390625 194.210938 170.476562 194.101562 170.589844 194.011719 C 170.703125 193.925781 170.828125 193.863281 170.96875 193.832031 C 171.105469 193.800781 171.246094 193.804688 171.382812 193.835938 C 171.453125 193.820312 171.523438 193.8125 171.597656 193.8125 L 188.925781 193.8125 C 189.054688 193.8125 189.179688 193.835938 189.300781 193.886719 C 189.417969 193.835938 189.539062 193.8125 189.667969 193.8125 C 189.929688 193.808594 190.148438 193.902344 190.332031 194.085938 C 190.515625 194.269531 190.609375 194.488281 190.609375 194.75 L 190.609375 199.238281 C 190.609375 199.664062 190.652344 200.089844 190.734375 200.511719 C 190.820312 200.933594 190.945312 201.34375 191.109375 201.738281 C 191.273438 202.136719 191.472656 202.511719 191.710938 202.871094 C 191.949219 203.226562 192.21875 203.558594 192.523438 203.859375 C 192.824219 204.164062 193.15625 204.433594 193.511719 204.675781 C 193.867188 204.914062 194.242188 205.113281 194.640625 205.277344 C 195.035156 205.445312 195.441406 205.570312 195.863281 205.652344 C 196.28125 205.738281 196.707031 205.78125 197.132812 205.78125 L 215.695312 205.78125 C 216.125 205.78125 216.550781 205.738281 216.96875 205.652344 C 217.390625 205.570312 217.796875 205.445312 218.195312 205.28125 C 218.589844 205.117188 218.964844 204.914062 219.324219 204.675781 C 219.679688 204.4375 220.007812 204.164062 220.3125 203.863281 C 220.613281 203.558594 220.886719 203.226562 221.125 202.871094 C 221.363281 202.515625 221.5625 202.136719 221.726562 201.738281 C 221.890625 201.34375 222.015625 200.933594 222.101562 200.511719 C 222.183594 200.089844 222.226562 199.667969 222.226562 199.238281 L 222.226562 188.730469 L 138.527344 188.730469 L 138.527344 199.222656 C 138.527344 199.652344 138.574219 200.078125 138.65625 200.5 C 138.742188 200.921875 138.867188 201.332031 139.03125 201.726562 C 139.195312 202.125 139.398438 202.5 139.636719 202.859375 C 139.875 203.214844 140.148438 203.546875 140.449219 203.851562 C 140.753906 204.15625 141.085938 204.425781 141.441406 204.667969 C 141.796875 204.90625 142.171875 205.109375 142.570312 205.273438 C 142.964844 205.441406 143.375 205.566406 143.792969 205.648438 C 144.214844 205.734375 144.640625 205.777344 145.070312 205.78125 Z M 145.070312 205.78125 " fill-opacity="1" fill-rule="nonzero"/><path fill="#ffe6bc" d="M 280.789062 241.601562 C 281.289062 243.046875 281.476562 244.53125 281.355469 246.054688 C 281.234375 247.578125 280.8125 249.015625 280.09375 250.359375 L 297.882812 250.359375 C 297.835938 250.226562 297.820312 250.089844 297.84375 249.949219 C 297.875 249.597656 297.871094 249.246094 297.835938 248.890625 C 297.804688 248.539062 297.734375 248.195312 297.636719 247.855469 C 297.535156 247.515625 297.40625 247.1875 297.246094 246.871094 C 297.085938 246.554688 296.894531 246.257812 296.679688 245.980469 C 296.460938 245.699219 296.21875 245.441406 295.953125 245.207031 C 295.691406 244.972656 295.40625 244.765625 295.101562 244.585938 C 294.796875 244.40625 294.476562 244.257812 294.144531 244.136719 C 293.8125 244.015625 293.472656 243.929688 293.125 243.871094 C 292.835938 243.835938 292.546875 243.828125 292.261719 243.816406 C 291.734375 243.8125 291.214844 243.757812 290.699219 243.660156 C 290.140625 243.574219 289.640625 243.359375 289.195312 243.007812 C 288.75 242.65625 288.421875 242.21875 288.210938 241.695312 C 287.859375 240.683594 288.210938 239.730469 288.507812 238.960938 C 288.65625 238.617188 288.761719 238.265625 288.832031 237.902344 C 289.011719 236.585938 287.601562 235.367188 286.21875 235.15625 C 284.375 234.925781 282.585938 235.148438 280.855469 235.824219 C 280.714844 235.878906 280.570312 235.898438 280.421875 235.882812 C 280.273438 235.871094 280.136719 235.820312 280.011719 235.742188 C 279.882812 235.660156 279.78125 235.554688 279.707031 235.425781 C 279.628906 235.296875 279.585938 235.160156 279.578125 235.007812 C 279.542969 234.476562 279.421875 233.964844 279.214844 233.476562 C 279.007812 232.984375 278.722656 232.542969 278.367188 232.148438 C 278.007812 231.757812 277.59375 231.433594 277.125 231.183594 C 276.65625 230.933594 276.15625 230.769531 275.632812 230.6875 C 275.105469 230.609375 274.582031 230.617188 274.0625 230.71875 C 273.539062 230.820312 273.046875 231.003906 272.589844 231.273438 C 272.128906 231.539062 271.730469 231.878906 271.386719 232.285156 C 271.042969 232.691406 270.777344 233.144531 270.585938 233.640625 L 273.679688 234.628906 C 274.503906 234.886719 275.285156 235.238281 276.027344 235.683594 C 276.769531 236.128906 277.449219 236.652344 278.070312 237.261719 C 278.6875 237.867188 279.226562 238.535156 279.6875 239.269531 C 280.144531 240.003906 280.511719 240.78125 280.789062 241.601562 Z M 280.789062 241.601562 " fill-opacity="1" fill-rule="nonzero"/><path fill="#d30f1e" d="M 237.390625 177.125 L 223.457031 97.949219 L 206.105469 97.949219 L 220.039062 177.125 Z M 237.390625 177.125 " fill-opacity="1" fill-rule="nonzero"/><path fill="#ffe6bc" d="M 73.085938 250.359375 L 117.054688 250.359375 C 116.203125 248.050781 113.339844 238.910156 118.066406 231.113281 C 120.984375 226.273438 126.5625 223.378906 131.074219 221.746094 C 129.945312 219.089844 129.101562 216.34375 128.546875 213.515625 C 128.207031 213.667969 127.890625 213.632812 127.59375 213.40625 C 125.964844 212.152344 124.09375 210.957031 122.515625 211.589844 C 121.226562 212.097656 120.566406 213.707031 119.917969 215.25 L 119.828125 215.472656 C 118.683594 218.222656 117.136719 219.667969 115.230469 219.765625 C 113.847656 219.835938 112.667969 219.117188 111.621094 218.484375 C 110.574219 217.847656 109.757812 217.359375 108.933594 217.546875 C 108.03125 217.75 107.46875 218.847656 107.417969 219.773438 C 107.335938 220.875 107.703125 221.988281 108.082031 223.171875 L 108.15625 223.414062 C 108.589844 224.769531 109.023438 226.339844 108.707031 227.910156 C 108.582031 228.519531 108.246094 228.972656 107.695312 229.265625 C 106.136719 230.171875 103.515625 229.335938 103.222656 229.242188 C 102.929688 229.144531 102.660156 229.039062 102.378906 228.929688 C 101.367188 228.554688 100.417969 228.203125 99.59375 228.425781 C 98.5 228.722656 97.890625 230.066406 97.871094 231.171875 C 97.847656 232.558594 98.472656 233.992188 99.023438 235.261719 C 99.125 235.488281 99.132812 235.71875 99.050781 235.953125 C 98.96875 236.183594 98.816406 236.359375 98.597656 236.472656 C 96.917969 237.34375 94.984375 236.433594 93.730469 235.289062 C 92.789062 234.433594 91.8125 233.671875 91.023438 233.941406 C 90.53125 234.203125 90.128906 234.566406 89.816406 235.03125 C 89.21875 235.753906 88.539062 236.546875 87.410156 236.761719 C 85.976562 237 84.921875 236.058594 84.078125 235.296875 C 83.496094 234.792969 82.953125 234.285156 82.402344 234.199219 C 82.03125 234.148438 81.707031 234.242188 81.421875 234.480469 C 80.839844 234.964844 80.503906 235.582031 80.410156 236.332031 C 80.371094 237.375 80.503906 238.398438 80.808594 239.394531 C 80.914062 239.855469 81.027344 240.3125 81.113281 240.769531 C 81.367188 242.121094 81.527344 244.613281 79.785156 246.105469 C 78.703125 247.039062 77.304688 247.210938 75.972656 247.300781 C 74.933594 247.371094 73.863281 247.449219 73.15625 247.980469 C 72.820312 248.25 72.640625 248.601562 72.617188 249.035156 C 72.589844 249.222656 72.648438 249.382812 72.789062 249.515625 C 73.042969 249.742188 73.140625 250.023438 73.085938 250.359375 Z M 73.085938 250.359375 " fill-opacity="1" fill-rule="nonzero"/><path fill="#c49a6c" d="M 184.941406 252.246094 L 66.1875 252.246094 L 66.1875 261.453125 L 308.6875 261.453125 L 308.6875 252.246094 Z M 184.941406 252.246094 " fill-opacity="1" fill-rule="nonzero"/><path fill="#ffe6bc" d="M 177.53125 234.613281 L 177.285156 234.691406 L 178.292969 234.691406 C 178.25 234.660156 178.199219 234.644531 178.152344 234.613281 C 177.945312 234.539062 177.738281 234.539062 177.53125 234.613281 Z M 177.53125 234.613281 " fill-opacity="1" fill-rule="nonzero"/><path fill="#232323" d="M 181.351562 234.691406 L 185.515625 234.691406 C 189.332031 234.40625 193.269531 234.109375 196.902344 232.851562 C 200.867188 231.472656 203.871094 229.0625 205.359375 226.058594 C 207.03125 222.675781 206.4375 218.460938 203.988281 216.222656 C 201.765625 214.199219 198.433594 213.878906 195.742188 213.816406 C 195.234375 213.816406 194.683594 213.816406 194.15625 213.792969 C 191.460938 213.792969 188.683594 213.746094 186.074219 212.734375 C 184.925781 212.296875 183.910156 211.652344 183.023438 210.800781 C 182.140625 209.949219 181.453125 208.960938 180.964844 207.832031 C 180.480469 208.960938 179.792969 209.949219 178.90625 210.800781 C 178.019531 211.652344 177 212.296875 175.855469 212.734375 C 173.257812 213.746094 170.476562 213.746094 167.773438 213.792969 C 167.269531 213.792969 166.710938 213.792969 166.1875 213.816406 C 163.515625 213.878906 160.160156 214.207031 157.9375 216.230469 C 155.488281 218.445312 154.90625 222.675781 156.570312 226.058594 C 156.707031 226.328125 156.863281 226.589844 157.019531 226.855469 L 162.15625 226.179688 C 161.035156 224.324219 160.507812 221.0625 162.039062 219.414062 C 162.445312 218.992188 162.914062 218.65625 163.441406 218.40625 C 163.96875 218.152344 164.519531 218 165.101562 217.945312 C 165.683594 217.894531 166.257812 217.945312 166.820312 218.097656 C 167.382812 218.25 167.902344 218.496094 168.378906 218.835938 C 169.53125 219.699219 170.292969 221.050781 170.648438 222.890625 C 172.152344 222.402344 173.691406 222.246094 175.265625 222.417969 C 175.90625 222.503906 176.503906 222.710938 177.0625 223.042969 C 177.617188 223.371094 178.089844 223.800781 178.472656 224.324219 C 179.074219 225.128906 179.28125 226.03125 179.085938 227.023438 C 179.039062 227.21875 178.984375 227.417969 178.914062 227.609375 C 178.839844 227.796875 178.796875 227.996094 178.785156 228.195312 C 178.785156 228.40625 179.136719 228.671875 179.578125 228.851562 C 179.738281 228.917969 179.90625 228.972656 180.082031 229.027344 C 180.683594 229.195312 181.230469 229.46875 181.730469 229.847656 C 182.015625 230.097656 182.25 230.394531 182.425781 230.730469 C 182.601562 231.070312 182.714844 231.429688 182.757812 231.808594 C 182.800781 232.1875 182.777344 232.5625 182.679688 232.929688 C 182.585938 233.300781 182.425781 233.640625 182.203125 233.949219 C 181.96875 234.253906 181.683594 234.5 181.351562 234.691406 Z M 181.351562 234.691406 " fill-opacity="1" fill-rule="nonzero"/><path fill="#ffe6bc" d="M 180.699219 232.800781 C 180.855469 232.558594 180.917969 232.296875 180.886719 232.007812 C 180.851562 231.722656 180.730469 231.480469 180.523438 231.28125 C 180.199219 231.050781 179.851562 230.882812 179.472656 230.773438 C 179.273438 230.710938 179.082031 230.644531 178.890625 230.566406 C 177.75 230.113281 177.03125 229.3125 176.925781 228.375 C 176.894531 227.898438 176.964844 227.441406 177.136719 226.996094 C 177.1875 226.867188 177.222656 226.734375 177.253906 226.601562 C 177.332031 226.152344 177.230469 225.746094 176.949219 225.386719 C 176.472656 224.742188 175.835938 224.363281 175.042969 224.25 C 173.386719 224.078125 171.796875 224.335938 170.277344 225.015625 C 170.140625 225.082031 169.996094 225.109375 169.84375 225.101562 C 169.691406 225.09375 169.546875 225.050781 169.414062 224.976562 C 169.285156 224.898438 169.175781 224.796875 169.09375 224.667969 C 169.011719 224.539062 168.964844 224.398438 168.949219 224.246094 C 168.832031 222.949219 168.445312 221.207031 167.261719 220.335938 C 166.972656 220.136719 166.65625 219.992188 166.316406 219.902344 C 165.976562 219.816406 165.628906 219.785156 165.277344 219.816406 C 164.925781 219.851562 164.59375 219.941406 164.273438 220.089844 C 163.953125 220.238281 163.667969 220.4375 163.417969 220.6875 C 162.550781 221.621094 163.050781 224.445312 164.03125 225.578125 C 164.15625 225.722656 164.230469 225.890625 164.246094 226.085938 C 164.828125 226.105469 165.40625 226.171875 165.976562 226.285156 C 166.550781 226.394531 167.109375 226.554688 167.65625 226.753906 C 168.203125 226.957031 168.730469 227.199219 169.238281 227.484375 C 169.75 227.769531 170.230469 228.09375 170.6875 228.457031 C 171.144531 228.816406 171.570312 229.214844 171.964844 229.644531 C 172.359375 230.074219 172.71875 230.53125 173.039062 231.019531 C 173.363281 231.503906 173.644531 232.015625 173.886719 232.546875 C 174.128906 233.078125 174.324219 233.625 174.480469 234.1875 C 175.246094 233.511719 176.125 233.039062 177.113281 232.78125 C 177.84375 232.5625 178.535156 232.652344 179.1875 233.054688 C 179.4375 233.203125 179.703125 233.253906 179.988281 233.203125 C 180.273438 233.15625 180.511719 233.023438 180.699219 232.800781 Z M 180.699219 232.800781 " fill-opacity="1" fill-rule="nonzero"/><path fill="#ff7d87" d="M 176.433594 222.710938 C 177.257812 223.050781 177.933594 223.582031 178.457031 224.300781 C 179.058594 225.109375 179.265625 226.011719 179.070312 227 C 179.023438 227.199219 178.96875 227.394531 178.902344 227.589844 C 178.824219 227.777344 178.78125 227.972656 178.769531 228.175781 C 178.769531 228.382812 179.121094 228.652344 179.5625 228.828125 C 179.722656 228.894531 179.890625 228.953125 180.066406 229.007812 C 180.667969 229.175781 181.21875 229.449219 181.714844 229.828125 C 182 230.078125 182.234375 230.375 182.410156 230.710938 C 182.585938 231.050781 182.699219 231.40625 182.742188 231.785156 C 182.785156 232.167969 182.761719 232.539062 182.664062 232.910156 C 182.570312 233.28125 182.410156 233.621094 182.1875 233.929688 C 181.953125 234.242188 181.660156 234.496094 181.320312 234.691406 L 185.488281 234.691406 C 189.300781 234.40625 193.242188 234.109375 196.871094 232.851562 C 200.835938 231.472656 203.84375 229.0625 205.328125 226.058594 C 205.921875 224.859375 206.238281 223.585938 206.269531 222.242188 C 206.300781 220.902344 206.050781 219.617188 205.515625 218.386719 C 202.046875 217.183594 198.480469 216.59375 194.8125 216.609375 C 187.410156 216.609375 180.765625 218.988281 176.433594 222.710938 Z M 176.433594 222.710938 " fill-opacity="1" fill-rule="nonzero"/><path fill="#ffffff" d="M 162.316406 97.949219 L 149.171875 177.125 L 137.371094 177.125 L 151.308594 97.949219 Z M 162.316406 97.949219 " fill-opacity="1" fill-rule="nonzero"/><path fill="#ffffff" d="M 193.632812 97.949219 L 206.777344 177.125 L 218.578125 177.125 L 204.640625 97.949219 Z M 193.632812 97.949219 " fill-opacity="1" fill-rule="nonzero"/><path fill="#e6e7e8" d="M 215.867188 97.949219 L 229.011719 177.125 L 237.0625 177.125 L 223.128906 97.949219 Z M 215.867188 97.949219 " fill-opacity="1" fill-rule="nonzero"/><path fill="#ffffff" d="M 173.53125 97.949219 L 167.449219 177.125 L 188.058594 177.125 L 181.976562 97.949219 Z M 173.53125 97.949219 " fill-opacity="1" fill-rule="nonzero"/><path fill="#6d6e71" d="M 208.703125 182.902344 C 204.902344 183.46875 201.382812 184.785156 198.140625 186.851562 L 223.15625 186.851562 C 223.417969 186.851562 223.636719 186.941406 223.820312 187.125 C 224.003906 187.308594 224.097656 187.53125 224.097656 187.789062 L 224.097656 199.238281 C 224.097656 199.789062 224.042969 200.335938 223.933594 200.878906 C 223.824219 201.421875 223.667969 201.949219 223.453125 202.457031 C 223.242188 202.96875 222.984375 203.453125 222.679688 203.914062 C 222.371094 204.375 222.023438 204.800781 221.632812 205.191406 C 221.246094 205.582031 220.820312 205.929688 220.363281 206.238281 C 219.902344 206.546875 219.417969 206.804688 218.910156 207.019531 C 218.402344 207.230469 217.875 207.390625 217.335938 207.5 C 216.792969 207.609375 216.25 207.664062 215.695312 207.664062 L 197.140625 207.664062 C 195.265625 207.667969 193.582031 207.101562 192.089844 205.960938 C 192.761719 207.160156 193.632812 208.183594 194.710938 209.03125 C 197.148438 210.941406 200.265625 211.648438 203.296875 212.304688 L 219.039062 215.710938 C 222.335938 216.421875 225.773438 217.136719 229.03125 216.285156 C 234.980469 214.730469 238.605469 208.113281 238.332031 201.957031 C 238.097656 196.683594 235.132812 188.675781 230.410156 185.722656 C 224.515625 182.019531 215.34375 181.78125 208.703125 182.902344 Z M 208.703125 182.902344 " fill-opacity="1" fill-rule="nonzero"/><path fill="#58595b" d="M 221.347656 186.851562 L 223.15625 186.851562 C 223.417969 186.851562 223.636719 186.941406 223.820312 187.125 C 224.003906 187.308594 224.097656 187.53125 224.097656 187.789062 L 224.097656 199.238281 C 224.097656 199.5 224.097656 199.742188 224.054688 200.011719 C 224.054688 200.085938 224.054688 200.164062 224.03125 200.238281 C 224.03125 200.425781 223.980469 200.609375 223.945312 200.792969 C 223.945312 200.867188 223.921875 200.941406 223.90625 201.015625 C 223.855469 201.257812 223.792969 201.5 223.71875 201.738281 C 223.640625 201.964844 223.5625 202.1875 223.46875 202.410156 L 223.378906 202.621094 C 223.308594 202.78125 223.226562 202.945312 223.148438 203.101562 C 223.113281 203.167969 223.082031 203.234375 223.042969 203.304688 C 222.925781 203.511719 222.804688 203.71875 222.671875 203.917969 C 222.445312 208.046875 221.664062 212.070312 220.328125 215.984375 C 223.234375 216.589844 226.21875 217.035156 229.066406 216.292969 C 235.015625 214.738281 238.640625 208.125 238.367188 201.964844 C 238.132812 196.695312 235.167969 188.6875 230.445312 185.734375 C 227.609375 183.960938 224.027344 182.988281 220.34375 182.574219 C 220.652344 183.753906 221.003906 185.195312 221.347656 186.851562 Z M 221.347656 186.851562 " fill-opacity="1" fill-rule="nonzero"/><path fill="#6d6e71" d="M 159.398438 212.304688 C 162.429688 211.648438 165.566406 210.941406 167.984375 209.03125 C 171.183594 206.53125 172.640625 202.175781 172.113281 198.136719 L 172.113281 199.222656 C 172.113281 199.773438 172.058594 200.324219 171.949219 200.867188 C 171.839844 201.410156 171.679688 201.9375 171.46875 202.449219 C 171.257812 202.960938 171 203.449219 170.691406 203.910156 C 170.386719 204.371094 170.035156 204.796875 169.644531 205.1875 C 169.253906 205.578125 168.832031 205.929688 168.371094 206.238281 C 167.910156 206.546875 167.425781 206.804688 166.917969 207.019531 C 166.40625 207.230469 165.878906 207.390625 165.339844 207.5 C 164.796875 207.609375 164.25 207.664062 163.695312 207.664062 L 145.070312 207.664062 C 144.515625 207.664062 143.96875 207.609375 143.425781 207.5 C 142.886719 207.390625 142.359375 207.230469 141.847656 207.019531 C 141.339844 206.804688 140.855469 206.546875 140.394531 206.238281 C 139.933594 205.929688 139.511719 205.578125 139.121094 205.1875 C 138.730469 204.796875 138.378906 204.371094 138.074219 203.910156 C 137.765625 203.449219 137.507812 202.960938 137.296875 202.449219 C 137.082031 201.9375 136.925781 201.410156 136.816406 200.867188 C 136.707031 200.324219 136.652344 199.773438 136.652344 199.222656 L 136.652344 187.789062 C 136.652344 187.53125 136.746094 187.308594 136.925781 187.128906 C 137.109375 186.945312 137.332031 186.851562 137.589844 186.851562 L 164.585938 186.851562 C 161.347656 184.785156 157.828125 183.46875 154.027344 182.902344 C 147.769531 181.847656 139.265625 182 133.34375 185.121094 C 130.78125 191.199219 129.492188 197.542969 129.480469 204.144531 C 129.46875 207.832031 129.90625 211.464844 130.792969 215.042969 C 131.6875 215.597656 132.644531 216.011719 133.660156 216.285156 C 136.921875 217.136719 140.359375 216.421875 143.65625 215.710938 Z M 159.398438 212.304688 " fill-opacity="1" fill-rule="nonzero"/><path fill="#6d6e71" d="M 273.121094 236.421875 L 241.046875 226.175781 C 240.925781 226.140625 240.816406 226.078125 240.71875 225.988281 C 238.304688 229.886719 235.367188 233.335938 231.90625 236.339844 C 231.730469 236.496094 231.523438 236.570312 231.289062 236.574219 C 231.003906 236.574219 230.769531 236.464844 230.582031 236.25 C 230.453125 236.105469 230.378906 235.9375 230.359375 235.742188 C 226.183594 239.980469 221.339844 243.210938 215.828125 245.441406 C 215.851562 245.648438 215.808594 245.839844 215.703125 246.019531 C 215.597656 246.199219 215.449219 246.324219 215.257812 246.40625 C 213.296875 247.207031 211.277344 247.925781 209.195312 248.5625 C 208.417969 249.070312 207.644531 249.546875 206.851562 250 C 206.671875 250.105469 206.484375 250.222656 206.300781 250.339844 L 277.902344 250.339844 C 278.101562 250.046875 278.285156 249.742188 278.453125 249.425781 C 278.617188 249.109375 278.765625 248.785156 278.890625 248.453125 C 279.019531 248.117188 279.128906 247.78125 279.21875 247.433594 C 279.304688 247.089844 279.375 246.738281 279.421875 246.386719 C 279.46875 246.03125 279.496094 245.675781 279.503906 245.320312 C 279.511719 244.960938 279.496094 244.605469 279.460938 244.25 C 279.425781 243.894531 279.371094 243.542969 279.296875 243.195312 C 279.21875 242.847656 279.125 242.503906 279.007812 242.164062 C 278.890625 241.828125 278.757812 241.5 278.605469 241.175781 C 278.449219 240.855469 278.277344 240.542969 278.085938 240.242188 C 277.898438 239.941406 277.691406 239.652344 277.464844 239.375 C 277.242188 239.097656 277.003906 238.832031 276.746094 238.582031 C 276.492188 238.332031 276.222656 238.101562 275.941406 237.882812 C 275.660156 237.664062 275.367188 237.464844 275.0625 237.28125 C 274.757812 237.097656 274.441406 236.929688 274.117188 236.785156 C 273.792969 236.636719 273.460938 236.511719 273.121094 236.402344 Z M 273.121094 236.421875 " fill-opacity="1" fill-rule="nonzero"/><path fill="#e6e7e8" d="M 150.417969 169.628906 L 149.171875 177.125 L 137.375 177.125 L 138.6875 169.679688 C 142.195312 169.628906 146.167969 169.617188 150.417969 169.628906 Z M 150.417969 169.628906 " fill-opacity="1" fill-rule="nonzero"/><path fill="#e6e7e8" d="M 218.578125 177.125 L 206.777344 177.125 L 205.710938 170.707031 L 205.832031 170.707031 C 206.21875 170.71875 206.601562 170.6875 206.980469 170.613281 C 207.359375 170.542969 207.726562 170.429688 208.082031 170.273438 C 208.4375 170.121094 208.769531 169.929688 209.082031 169.703125 C 209.394531 169.476562 209.679688 169.21875 209.9375 168.925781 C 210.191406 168.636719 210.414062 168.324219 210.601562 167.984375 C 210.789062 167.644531 210.9375 167.289062 211.046875 166.917969 C 211.15625 166.546875 211.226562 166.167969 211.253906 165.78125 C 211.28125 165.394531 211.265625 165.011719 211.207031 164.628906 L 201.449219 97.976562 L 204.644531 97.976562 Z M 218.578125 177.125 " fill-opacity="1" fill-rule="nonzero"/><path fill="#e6e7e8" d="M 188.058594 177.125 L 167.445312 177.125 L 168.011719 169.816406 C 174.71875 169.925781 181.429688 170.074219 187.527344 170.226562 Z M 188.058594 177.125 " fill-opacity="1" fill-rule="nonzero"/><path fill="#e6e7e8" d="M 150.417969 169.628906 L 149.171875 177.125 L 137.375 177.125 L 138.679688 169.679688 C 142.195312 169.628906 146.167969 169.617188 150.417969 169.628906 Z M 150.417969 169.628906 " fill-opacity="1" fill-rule="nonzero"/><path fill="#58595b" d="M 278.835938 248.5625 C 272.878906 248.300781 267.078125 247.214844 261.429688 245.304688 C 257.5 243.972656 253.574219 242.164062 250.867188 239.019531 C 248.417969 236.179688 247.214844 232.027344 248.453125 228.546875 L 241.027344 226.175781 C 240.902344 226.140625 240.792969 226.078125 240.699219 225.988281 C 238.285156 229.886719 235.347656 233.335938 231.886719 236.339844 C 231.707031 236.496094 231.503906 236.570312 231.269531 236.574219 C 230.984375 236.574219 230.75 236.464844 230.5625 236.25 C 230.433594 236.105469 230.359375 235.9375 230.339844 235.742188 C 226.160156 239.980469 221.316406 243.210938 215.808594 245.441406 C 215.832031 245.648438 215.789062 245.839844 215.683594 246.019531 C 215.578125 246.199219 215.429688 246.324219 215.238281 246.40625 C 213.277344 247.207031 211.257812 247.925781 209.175781 248.5625 C 208.398438 249.070312 207.625 249.546875 206.832031 250 C 206.652344 250.105469 206.464844 250.222656 206.28125 250.339844 L 277.902344 250.339844 C 278.277344 249.78125 278.589844 249.191406 278.835938 248.5625 Z M 278.835938 248.5625 " fill-opacity="1" fill-rule="nonzero"/><path fill="#e2c191" d="M 222.222656 199.238281 L 222.222656 188.730469 L 218.132812 188.730469 L 218.132812 199.617188 L 197.726562 202.816406 C 197.726562 202.816406 192.867188 203.75 190.613281 199.273438 C 190.613281 199.703125 190.65625 200.125 190.742188 200.546875 C 190.824219 200.96875 190.949219 201.378906 191.113281 201.773438 C 191.277344 202.171875 191.480469 202.546875 191.714844 202.90625 C 191.953125 203.261719 192.226562 203.59375 192.527344 203.894531 C 192.832031 204.199219 193.160156 204.472656 193.515625 204.710938 C 193.871094 204.949219 194.25 205.148438 194.644531 205.316406 C 195.039062 205.480469 195.445312 205.605469 195.867188 205.6875 C 196.289062 205.773438 196.710938 205.816406 197.140625 205.816406 L 215.695312 205.816406 C 216.125 205.816406 216.550781 205.773438 216.972656 205.6875 C 217.394531 205.601562 217.804688 205.476562 218.199219 205.3125 C 218.597656 205.144531 218.972656 204.941406 219.332031 204.703125 C 219.6875 204.460938 220.019531 204.1875 220.320312 203.882812 C 220.625 203.578125 220.894531 203.246094 221.132812 202.886719 C 221.371094 202.527344 221.570312 202.148438 221.734375 201.75 C 221.898438 201.351562 222.019531 200.941406 222.101562 200.515625 C 222.183594 200.09375 222.226562 199.667969 222.222656 199.238281 Z M 222.222656 199.238281 " fill-opacity="1" fill-rule="nonzero"/><path fill="#e2c191" d="M 131.023438 221.636719 C 130.664062 221.5625 130.300781 221.515625 129.9375 221.507812 C 129.570312 221.71875 129.183594 221.878906 128.773438 221.980469 C 128.359375 222.085938 127.945312 222.128906 127.523438 222.117188 C 127.097656 222.101562 126.6875 222.03125 126.285156 221.898438 C 125.878906 221.769531 125.503906 221.585938 125.152344 221.347656 C 123.761719 220.386719 122.449219 218.816406 122.753906 217.15625 C 121.742188 218.878906 119.324219 219.753906 117.617188 218.726562 C 118.160156 219.445312 119.203125 220.007812 119.445312 220.867188 C 119.632812 221.578125 119.644531 222.292969 119.480469 223.011719 C 119.3125 223.730469 118.988281 224.363281 118.503906 224.921875 C 117.546875 226 116.257812 226.859375 114.808594 226.875 L 114.261719 226.875 C 116.070312 228.183594 116.167969 231.261719 114.445312 232.679688 C 115.160156 234.277344 115.574219 235.949219 115.6875 237.699219 C 116.046875 235.328125 116.839844 233.117188 118.066406 231.058594 C 120.984375 226.214844 126.5625 223.324219 131.074219 221.6875 C 131.058594 221.671875 131.039062 221.652344 131.023438 221.636719 Z M 131.023438 221.636719 " fill-opacity="1" fill-rule="nonzero"/><path fill="#e2c191" d="M 117.054688 250.359375 C 115.941406 247.273438 115.394531 244.085938 115.414062 240.804688 C 115.3125 241.226562 115.125 241.601562 114.84375 241.933594 C 114.5625 242.261719 114.222656 242.511719 113.824219 242.675781 C 112.554688 243.117188 111.140625 242.171875 110.566406 240.96875 C 109.988281 239.769531 110.058594 238.347656 110.089844 237 C 109.796875 237.308594 109.445312 237.527344 109.035156 237.65625 C 108.628906 237.785156 108.214844 237.808594 107.796875 237.722656 C 106.96875 237.546875 106.191406 237.238281 105.46875 236.792969 C 104.398438 236.210938 102.847656 236.285156 101.769531 235.71875 C 102.882812 236.898438 103.957031 238.304688 103.972656 239.925781 C 103.988281 241.546875 102.355469 243.203125 100.851562 242.617188 C 100.253906 242.316406 99.761719 241.894531 99.371094 241.351562 C 98.984375 240.804688 98.480469 240.410156 97.855469 240.171875 C 97.226562 240.003906 96.417969 240.335938 96.339844 240.984375 C 97.089844 241.640625 97.546875 242.460938 97.714844 243.441406 C 97.75 243.679688 97.742188 243.917969 97.699219 244.152344 C 97.652344 244.390625 97.570312 244.609375 97.449219 244.820312 C 97.328125 245.027344 97.179688 245.210938 96.996094 245.367188 C 96.816406 245.523438 96.613281 245.648438 96.390625 245.738281 C 95.476562 246.015625 93.867188 245.324219 94.054688 244.390625 C 93.902344 245.117188 93.632812 245.800781 93.246094 246.4375 C 92.859375 247.074219 92.378906 247.625 91.800781 248.097656 C 91.226562 248.566406 90.589844 248.925781 89.886719 249.175781 C 89.1875 249.425781 88.46875 249.550781 87.722656 249.550781 C 86.980469 249.511719 86.265625 249.351562 85.578125 249.066406 C 84.890625 248.777344 84.273438 248.386719 83.71875 247.886719 C 83.167969 247.386719 82.714844 246.808594 82.363281 246.152344 C 82.007812 245.496094 81.777344 244.796875 81.664062 244.058594 L 81.042969 244.09375 C 80.828125 244.886719 80.410156 245.554688 79.789062 246.089844 C 78.707031 247.023438 77.308594 247.195312 75.976562 247.285156 C 74.941406 247.355469 73.871094 247.433594 73.164062 247.964844 C 72.824219 248.234375 72.644531 248.585938 72.621094 249.019531 C 72.597656 249.207031 72.652344 249.367188 72.792969 249.5 C 73.058594 249.726562 73.164062 250.015625 73.105469 250.359375 Z M 117.054688 250.359375 " fill-opacity="1" fill-rule="nonzero"/><path fill="#e2c191" d="M 276.265625 235.636719 C 276.464844 236.015625 276.703125 236.367188 276.980469 236.691406 C 277.257812 237.019531 277.566406 237.3125 277.90625 237.570312 C 278.242188 237.832031 278.605469 238.054688 278.992188 238.234375 C 279.378906 238.417969 279.78125 238.554688 280.195312 238.652344 C 280.613281 238.75 281.035156 238.800781 281.460938 238.804688 C 281.886719 238.808594 282.3125 238.769531 282.730469 238.683594 C 283.148438 238.597656 283.550781 238.46875 283.941406 238.296875 C 284.332031 238.125 284.703125 237.914062 285.046875 237.664062 C 285.050781 238.023438 285.097656 238.382812 285.179688 238.734375 C 285.265625 239.085938 285.386719 239.421875 285.546875 239.746094 C 285.707031 240.070312 285.898438 240.371094 286.125 240.652344 C 286.351562 240.933594 286.609375 241.1875 286.890625 241.410156 C 287.175781 241.632812 287.480469 241.824219 287.804688 241.976562 C 288.128906 242.132812 288.46875 242.25 288.820312 242.328125 C 289.171875 242.40625 289.527344 242.445312 289.890625 242.445312 C 290.25 242.445312 290.605469 242.402344 290.957031 242.324219 C 293.019531 241.851562 294.914062 243.402344 296.464844 244.828125 C 297.242188 245.558594 297.851562 246.414062 298.289062 247.386719 C 298.726562 248.363281 298.960938 249.386719 298.988281 250.457031 C 292.476562 251.632812 285.972656 251.582031 279.480469 250.308594 C 280.492188 247.777344 281.386719 244.90625 280.386719 242.382812 C 279.875 241.261719 279.203125 240.25 278.363281 239.34375 C 277.464844 238.304688 277.144531 236.679688 276.265625 235.636719 Z M 276.265625 235.636719 " fill-opacity="1" fill-rule="nonzero"/><path fill="#58595b" d="M 165.605469 246.023438 C 166.171875 245.917969 166.71875 245.757812 167.253906 245.546875 C 167.789062 245.332031 168.296875 245.074219 168.78125 244.761719 C 169.265625 244.453125 169.71875 244.101562 170.136719 243.707031 C 170.554688 243.3125 170.929688 242.882812 171.269531 242.414062 C 171.605469 241.949219 171.894531 241.457031 172.136719 240.933594 C 172.382812 240.414062 172.574219 239.871094 172.714844 239.3125 C 172.855469 238.753906 172.945312 238.1875 172.980469 237.613281 C 173.015625 237.039062 172.992188 236.464844 172.921875 235.894531 C 173.425781 243.828125 141.867188 246.449219 141.867188 246.449219 L 117.898438 246.449219 C 118.164062 247.722656 118.527344 248.964844 118.992188 250.179688 C 119.015625 250.238281 119.039062 250.300781 119.050781 250.367188 L 142.390625 250.367188 Z M 165.605469 246.023438 " fill-opacity="1" fill-rule="nonzero"/><path fill="#939598" d="M 133.976562 227.3125 C 133.191406 226.058594 132.472656 224.765625 131.828125 223.4375 C 127.59375 224.957031 122.3125 227.640625 119.640625 232.046875 C 117.207031 236.097656 117.054688 240.65625 117.503906 244.167969 C 117.503906 244.167969 121.480469 227.867188 133.976562 227.3125 Z M 133.976562 227.3125 " fill-opacity="1" fill-rule="nonzero"/><path fill="#a97c50" d="M 66.160156 258.53125 L 308.660156 258.53125 L 308.660156 261.453125 L 66.160156 261.453125 Z M 66.160156 258.53125 " fill-opacity="1" fill-rule="nonzero"/><path fill="#ffdebd" d="M 308.660156 252.246094 L 66.1875 252.246094 L 66.1875 254.195312 L 308.6875 254.195312 Z M 308.660156 252.246094 " fill-opacity="1" fill-rule="nonzero"/><path fill="#232323" d="M 203.25 215.09375 C 202.648438 214.03125 200.765625 214.679688 199.886719 214.949219 C 197.363281 215.773438 195.078125 217.039062 193.039062 218.742188 C 191.910156 219.605469 190.929688 220.621094 190.105469 221.78125 C 189.222656 222.945312 188.648438 224.246094 188.382812 225.683594 C 188.351562 225.9375 188.6875 225.953125 188.804688 225.796875 C 189.640625 224.691406 190.597656 223.710938 191.683594 222.855469 C 192.695312 222.058594 193.613281 221.203125 194.648438 220.46875 C 196.753906 219.066406 198.976562 217.898438 201.320312 216.957031 C 202.058594 216.628906 203.957031 216.339844 203.25 215.09375 Z M 203.25 215.09375 " fill-opacity="1" fill-rule="nonzero"/><path fill="#00aeef" d="M 193.890625 191.257812 L 218.941406 191.257812 L 218.941406 193.4375 C 218.941406 194.082031 218.875 194.722656 218.75 195.355469 C 218.625 195.988281 218.4375 196.601562 218.191406 197.199219 C 217.945312 197.792969 217.640625 198.359375 217.285156 198.894531 C 216.925781 199.433594 216.519531 199.925781 216.0625 200.382812 C 215.609375 200.839844 215.113281 201.246094 214.578125 201.605469 C 214.042969 201.960938 213.476562 202.265625 212.882812 202.511719 C 212.289062 202.757812 211.675781 202.941406 211.042969 203.066406 C 210.410156 203.191406 209.773438 203.253906 209.128906 203.253906 L 203.6875 203.253906 C 203.042969 203.253906 202.40625 203.191406 201.773438 203.0625 C 201.144531 202.9375 200.53125 202.75 199.9375 202.503906 C 199.34375 202.257812 198.777344 201.957031 198.246094 201.597656 C 197.710938 201.238281 197.214844 200.832031 196.761719 200.375 C 196.304688 199.921875 195.898438 199.425781 195.542969 198.886719 C 195.183594 198.351562 194.882812 197.785156 194.636719 197.191406 C 194.390625 196.59375 194.207031 195.980469 194.078125 195.347656 C 193.953125 194.714844 193.890625 194.078125 193.890625 193.433594 L 193.890625 191.253906 Z M 193.890625 191.257812 " fill-opacity="1" fill-rule="nonzero"/><path fill="#ed1c24" d="M 141.867188 191.257812 L 166.914062 191.257812 L 166.914062 193.4375 C 166.914062 194.082031 166.851562 194.722656 166.726562 195.355469 C 166.597656 195.988281 166.414062 196.601562 166.164062 197.199219 C 165.917969 197.792969 165.617188 198.359375 165.257812 198.894531 C 164.902344 199.433594 164.496094 199.925781 164.039062 200.382812 C 163.582031 200.839844 163.085938 201.246094 162.550781 201.605469 C 162.015625 201.960938 161.453125 202.265625 160.855469 202.511719 C 160.261719 202.757812 159.648438 202.941406 159.015625 203.066406 C 158.386719 203.191406 157.75 203.253906 157.105469 203.253906 L 151.660156 203.253906 C 151.015625 203.253906 150.378906 203.191406 149.75 203.0625 C 149.117188 202.9375 148.507812 202.75 147.914062 202.503906 C 147.316406 202.257812 146.753906 201.957031 146.21875 201.597656 C 145.683594 201.238281 145.191406 200.832031 144.734375 200.375 C 144.28125 199.921875 143.875 199.425781 143.515625 198.886719 C 143.160156 198.351562 142.859375 197.785156 142.613281 197.191406 C 142.367188 196.59375 142.179688 195.980469 142.054688 195.347656 C 141.929688 194.714844 141.867188 194.078125 141.867188 193.433594 L 141.867188 191.253906 Z M 141.867188 191.257812 " fill-opacity="1" fill-rule="nonzero"/><path fill="#232323" d="M 145.070312 208.289062 L 163.71875 208.289062 C 164.3125 208.285156 164.898438 208.226562 165.480469 208.113281 C 166.0625 207.996094 166.628906 207.824219 167.175781 207.597656 C 167.726562 207.367188 168.246094 207.089844 168.738281 206.757812 C 169.234375 206.425781 169.691406 206.050781 170.109375 205.628906 C 170.53125 205.210938 170.90625 204.75 171.234375 204.257812 C 171.566406 203.761719 171.84375 203.238281 172.070312 202.691406 C 172.300781 202.140625 172.472656 201.574219 172.589844 200.988281 C 172.703125 200.40625 172.761719 199.816406 172.761719 199.222656 L 172.761719 196.320312 L 188.117188 196.320312 L 188.117188 199.238281 C 188.121094 199.832031 188.175781 200.417969 188.292969 201 C 188.410156 201.582031 188.582031 202.148438 188.808594 202.699219 C 189.035156 203.246094 189.3125 203.769531 189.644531 204.261719 C 189.972656 204.757812 190.347656 205.214844 190.765625 205.632812 C 191.183594 206.054688 191.640625 206.429688 192.132812 206.757812 C 192.625 207.089844 193.144531 207.367188 193.691406 207.59375 C 194.238281 207.824219 194.804688 207.996094 195.382812 208.113281 C 195.964844 208.226562 196.550781 208.285156 197.144531 208.289062 L 215.695312 208.289062 C 216.289062 208.285156 216.875 208.230469 217.457031 208.113281 C 218.039062 207.996094 218.605469 207.824219 219.152344 207.597656 C 219.699219 207.371094 220.21875 207.089844 220.710938 206.761719 C 221.203125 206.429688 221.660156 206.054688 222.078125 205.636719 C 222.5 205.214844 222.875 204.757812 223.203125 204.265625 C 223.53125 203.769531 223.8125 203.25 224.039062 202.699219 C 224.265625 202.152344 224.4375 201.585938 224.554688 201.003906 C 224.667969 200.417969 224.726562 199.832031 224.726562 199.238281 L 224.726562 187.789062 C 224.726562 187.582031 224.6875 187.382812 224.609375 187.191406 C 224.53125 186.996094 224.417969 186.828125 224.269531 186.679688 C 224.121094 186.535156 223.953125 186.421875 223.761719 186.34375 C 223.570312 186.261719 223.371094 186.222656 223.164062 186.226562 L 137.589844 186.226562 C 137.382812 186.226562 137.183594 186.265625 136.992188 186.34375 C 136.800781 186.421875 136.632812 186.535156 136.484375 186.683594 C 136.339844 186.828125 136.226562 187 136.144531 187.191406 C 136.066406 187.382812 136.027344 187.582031 136.027344 187.789062 L 136.027344 199.222656 C 136.027344 199.816406 136.085938 200.40625 136.203125 200.988281 C 136.320312 201.574219 136.492188 202.140625 136.71875 202.6875 C 136.945312 203.238281 137.222656 203.761719 137.554688 204.253906 C 137.882812 204.75 138.257812 205.207031 138.679688 205.628906 C 139.097656 206.050781 139.554688 206.425781 140.046875 206.757812 C 140.542969 207.085938 141.0625 207.367188 141.609375 207.59375 C 142.160156 207.824219 142.722656 207.996094 143.304688 208.109375 C 143.886719 208.226562 144.476562 208.285156 145.070312 208.289062 Z M 139.152344 189.359375 L 221.597656 189.359375 L 221.597656 199.238281 C 221.597656 199.625 221.558594 200.007812 221.480469 200.390625 C 221.40625 200.769531 221.292969 201.140625 221.144531 201.5 C 220.996094 201.855469 220.816406 202.199219 220.597656 202.519531 C 220.382812 202.84375 220.140625 203.140625 219.867188 203.417969 C 219.59375 203.691406 219.292969 203.9375 218.972656 204.152344 C 218.652344 204.367188 218.3125 204.550781 217.953125 204.699219 C 217.59375 204.847656 217.226562 204.960938 216.847656 205.035156 C 216.46875 205.113281 216.085938 205.152344 215.695312 205.152344 L 197.140625 205.152344 C 196.753906 205.152344 196.367188 205.113281 195.988281 205.039062 C 195.609375 204.960938 195.242188 204.847656 194.882812 204.699219 C 194.523438 204.550781 194.183594 204.371094 193.863281 204.152344 C 193.542969 203.9375 193.242188 203.691406 192.96875 203.417969 C 192.695312 203.144531 192.449219 202.84375 192.234375 202.523438 C 192.019531 202.199219 191.839844 201.859375 191.691406 201.5 C 191.542969 201.140625 191.429688 200.769531 191.355469 200.390625 C 191.277344 200.007812 191.242188 199.625 191.238281 199.238281 L 191.238281 194.75 C 191.238281 194.539062 191.199219 194.339844 191.121094 194.148438 C 191.042969 193.957031 190.929688 193.789062 190.78125 193.640625 C 190.632812 193.492188 190.464844 193.378906 190.273438 193.300781 C 190.082031 193.222656 189.882812 193.183594 189.675781 193.183594 C 189.550781 193.183594 189.425781 193.203125 189.304688 193.234375 C 189.183594 193.203125 189.058594 193.183594 188.933594 193.183594 L 171.617188 193.183594 C 171.546875 193.179688 171.476562 193.179688 171.40625 193.183594 C 171.335938 193.179688 171.261719 193.179688 171.191406 193.183594 C 170.984375 193.183594 170.785156 193.222656 170.59375 193.304688 C 170.402344 193.382812 170.234375 193.496094 170.089844 193.640625 C 169.941406 193.789062 169.828125 193.957031 169.75 194.148438 C 169.671875 194.339844 169.632812 194.542969 169.632812 194.75 L 169.632812 199.222656 C 169.632812 199.609375 169.59375 199.996094 169.515625 200.378906 C 169.441406 200.757812 169.328125 201.128906 169.179688 201.488281 C 169.03125 201.851562 168.847656 202.191406 168.632812 202.515625 C 168.417969 202.839844 168.171875 203.136719 167.898438 203.414062 C 167.625 203.6875 167.324219 203.933594 167 204.152344 C 166.679688 204.367188 166.339844 204.550781 165.980469 204.699219 C 165.621094 204.847656 165.25 204.960938 164.871094 205.039062 C 164.488281 205.113281 164.105469 205.152344 163.71875 205.152344 L 145.070312 205.152344 C 144.679688 205.152344 144.296875 205.113281 143.914062 205.039062 C 143.535156 204.960938 143.164062 204.847656 142.804688 204.699219 C 142.449219 204.550781 142.105469 204.367188 141.785156 204.152344 C 141.460938 203.933594 141.164062 203.6875 140.886719 203.414062 C 140.613281 203.136719 140.367188 202.839844 140.152344 202.515625 C 139.9375 202.191406 139.753906 201.851562 139.605469 201.488281 C 139.457031 201.128906 139.34375 200.757812 139.269531 200.378906 C 139.191406 199.996094 139.152344 199.609375 139.152344 199.222656 Z M 139.152344 189.359375 " fill-opacity="1" fill-rule="nonzero"/><g clip-path="url(#cd54256cc3)"><path fill="#232323" d="M 309.601562 249.738281 L 300.363281 249.738281 C 300.378906 249.242188 300.351562 248.746094 300.277344 248.253906 C 300.203125 247.761719 300.085938 247.28125 299.925781 246.8125 C 299.765625 246.339844 299.5625 245.890625 299.316406 245.457031 C 299.074219 245.023438 298.792969 244.613281 298.476562 244.234375 C 298.15625 243.851562 297.808594 243.503906 297.425781 243.183594 C 297.042969 242.867188 296.636719 242.589844 296.203125 242.34375 C 295.769531 242.101562 295.316406 241.902344 294.847656 241.742188 C 294.378906 241.582031 293.898438 241.46875 293.40625 241.394531 C 293.058594 241.355469 292.710938 241.339844 292.355469 241.324219 C 291.972656 241.324219 291.59375 241.289062 291.214844 241.222656 C 290.960938 241.195312 290.746094 241.082031 290.574219 240.894531 C 290.605469 240.539062 290.699219 240.203125 290.851562 239.882812 C 291.0625 239.367188 291.21875 238.835938 291.3125 238.285156 C 291.703125 235.441406 289.191406 233.109375 286.597656 232.714844 C 284.945312 232.492188 283.304688 232.582031 281.683594 232.976562 C 281.453125 232.304688 281.125 231.675781 280.707031 231.097656 C 280.289062 230.523438 279.792969 230.019531 279.222656 229.589844 C 278.652344 229.160156 278.035156 228.824219 277.363281 228.582031 C 276.695312 228.339844 276.003906 228.203125 275.292969 228.167969 C 274.582031 228.132812 273.878906 228.203125 273.191406 228.378906 C 272.5 228.550781 271.851562 228.824219 271.242188 229.195312 C 270.632812 229.566406 270.089844 230.019531 269.617188 230.550781 C 269.144531 231.085938 268.757812 231.675781 268.460938 232.324219 L 242.570312 224.035156 C 244.183594 220.972656 245.402344 217.757812 246.226562 214.390625 C 247.046875 211.023438 247.445312 207.609375 247.421875 204.144531 C 247.410156 199.445312 246.773438 194.835938 245.511719 190.3125 C 244.25 185.789062 242.410156 181.515625 239.992188 177.492188 L 225.800781 96.738281 C 225.785156 96.679688 225.773438 96.621094 225.753906 96.5625 C 225.753906 96.523438 225.726562 96.476562 225.714844 96.4375 C 225.699219 96.394531 225.667969 96.34375 225.644531 96.300781 C 225.617188 96.253906 225.597656 96.207031 225.570312 96.167969 C 225.546875 96.132812 225.519531 96.097656 225.492188 96.066406 C 225.457031 96.019531 225.417969 95.972656 225.378906 95.929688 L 225.285156 95.847656 C 225.238281 95.8125 225.199219 95.773438 225.152344 95.742188 C 225.113281 95.714844 225.070312 95.691406 225.027344 95.671875 C 224.984375 95.644531 224.9375 95.617188 224.890625 95.59375 C 224.84375 95.59375 224.800781 95.566406 224.753906 95.550781 L 224.601562 95.5 C 224.554688 95.496094 224.511719 95.496094 224.464844 95.5 L 224.285156 95.441406 L 150.539062 95.441406 C 150.164062 95.449219 149.832031 95.574219 149.546875 95.816406 C 149.261719 96.0625 149.089844 96.371094 149.023438 96.738281 L 134.878906 176.773438 C 134.785156 176.863281 134.703125 176.964844 134.632812 177.078125 C 132.136719 181.148438 130.238281 185.484375 128.933594 190.078125 C 127.632812 194.675781 126.976562 199.363281 126.964844 204.144531 C 126.964844 206.164062 127.085938 208.171875 127.335938 210.175781 C 125.785156 209.234375 123.667969 208.386719 121.542969 209.246094 C 119.277344 210.152344 118.328125 212.429688 117.566406 214.261719 L 117.476562 214.488281 C 117.054688 215.5 116.1875 217.179688 115.066406 217.238281 C 114.449219 217.28125 113.675781 216.804688 112.867188 216.316406 C 111.65625 215.582031 110.144531 214.667969 108.324219 215.078125 C 106.4375 215.503906 105.007812 217.351562 104.847656 219.570312 C 104.820312 221.074219 105.082031 222.523438 105.625 223.921875 L 105.699219 224.160156 C 106.066406 225.113281 106.234375 226.101562 106.207031 227.125 C 105.429688 227.191406 104.675781 227.09375 103.9375 226.839844 C 103.6875 226.753906 103.433594 226.65625 103.175781 226.5625 C 101.96875 226.109375 100.464844 225.546875 98.863281 225.988281 C 96.804688 226.554688 95.328125 228.664062 95.300781 231.113281 C 95.296875 231.996094 95.425781 232.859375 95.683594 233.703125 C 95.566406 233.613281 95.453125 233.519531 95.347656 233.417969 C 94.402344 232.5625 92.441406 230.773438 90.152344 231.550781 C 89.195312 231.945312 88.421875 232.566406 87.824219 233.414062 C 87.515625 233.777344 87.136719 234.234375 86.925781 234.269531 C 86.714844 234.304688 86.125 233.8125 85.671875 233.414062 C 84.929688 232.746094 84.007812 231.894531 82.738281 231.707031 C 81.660156 231.539062 80.695312 231.792969 79.839844 232.472656 C 79.285156 232.914062 78.835938 233.445312 78.496094 234.0625 C 78.152344 234.683594 77.941406 235.347656 77.863281 236.050781 C 77.785156 237.382812 77.933594 238.6875 78.3125 239.96875 C 78.414062 240.382812 78.515625 240.796875 78.59375 241.214844 C 78.851562 242.589844 78.664062 243.699219 78.085938 244.191406 C 77.511719 244.683594 76.648438 244.699219 75.722656 244.785156 C 74.460938 244.871094 72.882812 244.980469 71.582031 245.960938 C 71.121094 246.320312 70.757812 246.761719 70.496094 247.28125 C 70.230469 247.804688 70.085938 248.359375 70.066406 248.941406 C 70.054688 249.210938 70.078125 249.476562 70.136719 249.738281 L 65.222656 249.738281 C 65.015625 249.738281 64.816406 249.777344 64.625 249.855469 C 64.433594 249.9375 64.265625 250.050781 64.117188 250.195312 C 63.972656 250.34375 63.859375 250.511719 63.78125 250.703125 C 63.699219 250.894531 63.660156 251.09375 63.660156 251.300781 L 63.660156 262.394531 C 63.660156 262.601562 63.699219 262.800781 63.78125 262.992188 C 63.859375 263.183594 63.972656 263.355469 64.117188 263.5 C 64.265625 263.648438 64.433594 263.761719 64.625 263.839844 C 64.816406 263.917969 65.015625 263.960938 65.222656 263.960938 L 309.601562 263.960938 C 309.808594 263.960938 310.007812 263.917969 310.199219 263.839844 C 310.390625 263.761719 310.558594 263.648438 310.703125 263.5 C 310.851562 263.355469 310.964844 263.183594 311.042969 262.992188 C 311.121094 262.800781 311.160156 262.601562 311.160156 262.394531 L 311.160156 251.300781 C 311.160156 251.09375 311.121094 250.894531 311.042969 250.703125 C 310.964844 250.511719 310.851562 250.34375 310.703125 250.195312 C 310.558594 250.050781 310.390625 249.9375 310.199219 249.855469 C 310.007812 249.777344 309.808594 249.738281 309.601562 249.738281 Z M 275.476562 231.300781 C 275.933594 231.378906 276.363281 231.523438 276.773438 231.742188 C 277.179688 231.960938 277.542969 232.242188 277.859375 232.578125 C 278.175781 232.917969 278.429688 233.300781 278.617188 233.722656 C 278.808594 234.144531 278.925781 234.585938 278.972656 235.050781 C 278.988281 235.300781 279.058594 235.53125 279.183594 235.746094 C 279.3125 235.960938 279.480469 236.136719 279.691406 236.269531 C 279.902344 236.402344 280.128906 236.484375 280.378906 236.507812 C 280.625 236.53125 280.867188 236.496094 281.097656 236.40625 C 282.722656 235.78125 284.398438 235.574219 286.125 235.789062 C 287.179688 235.949219 288.339844 236.898438 288.214844 237.816406 C 288.148438 238.144531 288.054688 238.464844 287.925781 238.777344 C 287.617188 239.59375 287.199219 240.710938 287.617188 241.933594 C 287.867188 242.5625 288.253906 243.085938 288.78125 243.511719 C 289.304688 243.933594 289.902344 244.199219 290.570312 244.308594 C 291.117188 244.414062 291.675781 244.46875 292.234375 244.476562 C 292.507812 244.476562 292.78125 244.476562 293.054688 244.53125 C 293.660156 244.632812 294.230469 244.839844 294.761719 245.152344 C 295.292969 245.464844 295.753906 245.859375 296.140625 246.34375 C 296.523438 246.824219 296.8125 247.359375 297 247.949219 C 297.1875 248.539062 297.265625 249.140625 297.230469 249.757812 L 281.066406 249.757812 C 281.382812 249.007812 281.617188 248.234375 281.773438 247.4375 C 281.925781 246.640625 281.996094 245.835938 281.984375 245.023438 C 281.972656 244.207031 281.875 243.40625 281.695312 242.613281 C 281.515625 241.820312 281.257812 241.054688 280.917969 240.316406 C 280.582031 239.578125 280.171875 238.882812 279.6875 238.230469 C 279.203125 237.578125 278.660156 236.980469 278.050781 236.441406 C 277.445312 235.902344 276.789062 235.433594 276.085938 235.03125 C 275.378906 234.628906 274.640625 234.304688 273.871094 234.058594 L 271.476562 233.292969 C 271.898438 232.605469 272.472656 232.082031 273.191406 231.722656 C 273.914062 231.363281 274.675781 231.222656 275.476562 231.300781 Z M 220.5625 176.480469 L 206.847656 98.578125 L 222.929688 98.578125 L 236.644531 176.480469 Z M 151.832031 98.578125 L 203.675781 98.578125 L 217.390625 176.480469 L 138.117188 176.480469 Z M 136.773438 179.617188 L 237.625 179.617188 C 239.796875 183.332031 241.449219 187.269531 242.582031 191.429688 C 243.714844 195.585938 244.285156 199.820312 244.296875 204.128906 C 244.296875 215.917969 239.441406 226.414062 230.257812 234.4375 C 230.105469 234.574219 229.980469 234.734375 229.886719 234.921875 C 229.796875 235.105469 229.746094 235.304688 229.730469 235.511719 C 229.71875 235.71875 229.742188 235.917969 229.808594 236.117188 C 229.875 236.3125 229.976562 236.488281 230.113281 236.644531 C 230.25 236.800781 230.410156 236.925781 230.59375 237.019531 C 230.78125 237.109375 230.976562 237.164062 231.183594 237.175781 C 231.390625 237.191406 231.589844 237.167969 231.785156 237.101562 C 231.984375 237.035156 232.160156 236.933594 232.316406 236.796875 C 235.675781 233.882812 238.554688 230.550781 240.953125 226.800781 L 272.945312 237.019531 C 274.238281 237.425781 275.371094 238.105469 276.335938 239.054688 C 277.304688 240.007812 278.003906 241.125 278.4375 242.414062 C 278.5625 242.792969 278.664062 243.175781 278.738281 243.570312 C 278.488281 243.175781 278.210938 242.800781 277.90625 242.445312 C 273.945312 237.820312 266.566406 237.585938 266.253906 237.578125 C 266.046875 237.570312 265.847656 237.605469 265.652344 237.675781 C 265.460938 237.75 265.289062 237.859375 265.136719 238 C 264.988281 238.144531 264.871094 238.3125 264.789062 238.5 C 264.703125 238.691406 264.660156 238.890625 264.65625 239.097656 C 264.652344 239.304688 264.683594 239.503906 264.757812 239.699219 C 264.832031 239.890625 264.941406 240.0625 265.082031 240.214844 C 265.226562 240.367188 265.390625 240.484375 265.578125 240.570312 C 265.765625 240.65625 265.964844 240.699219 266.171875 240.707031 C 266.234375 240.707031 272.492188 240.925781 275.535156 244.492188 C 276.144531 245.222656 276.589844 246.039062 276.875 246.949219 C 277.160156 247.855469 277.265625 248.785156 277.183594 249.734375 L 207.507812 249.734375 C 210.222656 248.976562 212.882812 248.066406 215.488281 247.003906 C 215.683594 246.925781 215.851562 246.8125 216 246.667969 C 216.148438 246.519531 216.261719 246.351562 216.34375 246.160156 C 216.425781 245.96875 216.464844 245.769531 216.464844 245.5625 C 216.46875 245.351562 216.429688 245.152344 216.351562 244.960938 C 216.273438 244.769531 216.160156 244.597656 216.015625 244.449219 C 215.871094 244.300781 215.703125 244.1875 215.511719 244.105469 C 215.320312 244.027344 215.121094 243.984375 214.914062 243.984375 C 214.703125 243.984375 214.503906 244.023438 214.3125 244.101562 C 205.519531 247.695312 195.355469 249.671875 184.929688 249.734375 L 159.402344 249.734375 L 166.070312 248.488281 C 166.726562 248.359375 167.363281 248.179688 167.988281 247.941406 C 168.609375 247.703125 169.207031 247.417969 169.78125 247.078125 C 170.355469 246.734375 170.894531 246.347656 171.402344 245.917969 C 171.910156 245.484375 172.375 245.007812 172.800781 244.496094 C 173.226562 243.980469 173.605469 243.4375 173.9375 242.855469 C 174.269531 242.277344 174.550781 241.675781 174.78125 241.046875 C 175.007812 240.417969 175.183594 239.777344 175.300781 239.121094 C 175.417969 238.460938 175.480469 237.800781 175.484375 237.132812 L 176.265625 237.1875 L 185.644531 237.1875 C 189.628906 236.894531 193.75 236.585938 197.695312 235.214844 C 202.292969 233.621094 205.777344 230.765625 207.574219 227.164062 C 209.761719 222.742188 208.949219 217.351562 205.644531 214.359375 C 202.8125 211.792969 198.882812 211.375 195.78125 211.320312 C 195.242188 211.320312 194.695312 211.320312 194.15625 211.296875 C 191.578125 211.296875 189.144531 211.25 186.96875 210.402344 C 185.324219 209.765625 183.746094 208.324219 183.222656 206.703125 C 186.042969 206.070312 188.058594 204.417969 188.058594 202.472656 C 188.058594 199.984375 184.757812 197.96875 180.695312 197.96875 C 176.628906 197.96875 173.328125 199.996094 173.328125 202.472656 C 173.328125 204.527344 175.578125 206.261719 178.652344 206.804688 C 178.308594 207.632812 177.8125 208.363281 177.167969 208.988281 C 176.523438 209.613281 175.78125 210.085938 174.941406 210.402344 C 172.769531 211.25 170.332031 211.273438 167.757812 211.296875 C 167.210938 211.296875 166.671875 211.296875 166.132812 211.320312 C 163.03125 211.390625 159.101562 211.828125 156.265625 214.359375 C 153.101562 217.230469 152.226562 222.292969 154.085938 226.605469 L 137.957031 228.722656 C 137.957031 228.714844 137.957031 228.707031 137.957031 228.699219 C 132.757812 221.71875 130.121094 213.457031 130.121094 204.140625 C 130.128906 199.832031 130.699219 195.597656 131.828125 191.441406 C 132.953125 187.285156 134.605469 183.347656 136.773438 179.628906 Z M 119.496094 249.738281 C 118.964844 248.359375 115.875 239.550781 120.1875 232.394531 C 122.65625 228.292969 127.484375 225.734375 131.527344 224.222656 C 132.382812 225.945312 133.359375 227.601562 134.445312 229.191406 L 132.371094 229.464844 C 132.171875 229.5 131.988281 229.570312 131.820312 229.679688 C 131.648438 229.785156 131.503906 229.917969 131.386719 230.082031 C 131.269531 230.246094 131.183594 230.421875 131.132812 230.617188 C 131.085938 230.8125 131.074219 231.011719 131.097656 231.210938 C 131.125 231.410156 131.1875 231.597656 131.285156 231.773438 C 131.382812 231.949219 131.507812 232.101562 131.664062 232.226562 C 131.820312 232.355469 131.996094 232.445312 132.1875 232.507812 C 132.378906 232.566406 132.574219 232.589844 132.773438 232.574219 L 162.84375 228.617188 C 163.863281 228.492188 164.871094 228.554688 165.871094 228.796875 C 166.871094 229.042969 167.792969 229.453125 168.640625 230.035156 L 160.714844 231.46875 C 160.527344 231.507812 160.351562 231.578125 160.1875 231.679688 C 160.023438 231.785156 159.882812 231.914062 159.769531 232.066406 C 159.652344 232.222656 159.570312 232.394531 159.515625 232.578125 C 159.464844 232.765625 159.445312 232.957031 159.460938 233.148438 C 159.480469 233.339844 159.53125 233.523438 159.617188 233.699219 C 159.699219 233.875 159.8125 234.027344 159.957031 234.15625 C 160.097656 234.289062 160.257812 234.390625 160.4375 234.464844 C 160.617188 234.539062 160.800781 234.574219 160.996094 234.578125 C 161.085938 234.589844 161.179688 234.589844 161.273438 234.578125 L 171.203125 232.78125 C 171.789062 233.777344 172.152344 234.847656 172.296875 235.996094 C 172.328125 236.214844 172.34375 236.4375 172.355469 236.65625 L 162.660156 237.582031 C 162.464844 237.605469 162.277344 237.664062 162.101562 237.753906 C 161.925781 237.847656 161.773438 237.972656 161.644531 238.125 C 161.515625 238.277344 161.417969 238.445312 161.355469 238.632812 C 161.289062 238.824219 161.261719 239.015625 161.273438 239.214844 C 161.28125 239.414062 161.328125 239.605469 161.410156 239.789062 C 161.492188 239.96875 161.601562 240.128906 161.746094 240.269531 C 161.886719 240.40625 162.050781 240.515625 162.234375 240.589844 C 162.417969 240.667969 162.609375 240.707031 162.808594 240.710938 L 162.964844 240.710938 L 171.914062 239.835938 C 171.671875 240.542969 171.339844 241.203125 170.921875 241.820312 C 170.507812 242.441406 170.015625 242.992188 169.453125 243.480469 C 168.890625 243.972656 168.277344 244.378906 167.605469 244.707031 C 166.9375 245.03125 166.234375 245.265625 165.503906 245.40625 L 142.351562 249.734375 Z M 157.136719 225.78125 C 155.585938 222.636719 156.125 218.730469 158.363281 216.691406 C 160.433594 214.8125 163.640625 214.5 166.207031 214.441406 L 167.78125 214.441406 C 170.53125 214.441406 173.363281 214.390625 176.070312 213.335938 C 178.148438 212.53125 179.777344 211.179688 180.957031 209.285156 C 182.132812 211.183594 183.761719 212.53125 185.839844 213.335938 C 188.542969 214.390625 191.398438 214.414062 194.125 214.441406 L 195.707031 214.441406 C 198.269531 214.5 201.476562 214.8125 203.550781 216.691406 C 205.800781 218.714844 206.328125 222.636719 204.777344 225.78125 C 202.871094 229.628906 198.882812 231.492188 196.695312 232.257812 C 193.160156 233.488281 189.261719 233.777344 185.492188 234.0625 L 182.867188 234.0625 C 183.09375 233.691406 183.246094 233.289062 183.332031 232.863281 C 183.417969 232.433594 183.429688 232.003906 183.363281 231.574219 C 183.296875 231.140625 183.160156 230.734375 182.953125 230.351562 C 182.742188 229.96875 182.476562 229.632812 182.148438 229.347656 C 181.589844 228.917969 180.972656 228.609375 180.300781 228.414062 C 180.144531 228.359375 179.988281 228.308594 179.835938 228.246094 C 179.699219 228.199219 179.574219 228.128906 179.460938 228.039062 C 179.460938 227.964844 179.511719 227.863281 179.535156 227.785156 C 179.609375 227.570312 179.671875 227.351562 179.722656 227.132812 C 179.832031 226.574219 179.828125 226.015625 179.703125 225.460938 C 179.578125 224.902344 179.34375 224.394531 179.007812 223.9375 C 178.570312 223.34375 178.039062 222.859375 177.40625 222.484375 C 176.773438 222.109375 176.09375 221.871094 175.363281 221.773438 C 173.933594 221.613281 172.523438 221.71875 171.132812 222.082031 C 170.796875 220.550781 170.011719 219.300781 168.777344 218.335938 C 168.242188 217.949219 167.652344 217.671875 167.015625 217.496094 C 166.378906 217.324219 165.730469 217.265625 165.070312 217.328125 C 164.414062 217.386719 163.785156 217.558594 163.1875 217.84375 C 162.59375 218.132812 162.066406 218.511719 161.605469 218.988281 C 160.089844 220.640625 160.296875 223.578125 161.222656 225.675781 L 157.382812 226.179688 C 157.289062 226.042969 157.207031 225.914062 157.136719 225.78125 Z M 164.710938 225.453125 C 164.660156 225.351562 164.597656 225.257812 164.523438 225.171875 C 163.632812 224.160156 163.359375 221.703125 163.894531 221.121094 C 164.09375 220.929688 164.316406 220.773438 164.570312 220.65625 C 164.820312 220.542969 165.085938 220.472656 165.359375 220.445312 C 165.636719 220.421875 165.910156 220.445312 166.175781 220.511719 C 166.445312 220.582031 166.695312 220.695312 166.925781 220.847656 C 167.933594 221.597656 168.257812 223.140625 168.363281 224.3125 C 168.386719 224.5625 168.464844 224.792969 168.601562 225.003906 C 168.734375 225.21875 168.90625 225.386719 169.125 225.515625 C 169.339844 225.644531 169.570312 225.714844 169.820312 225.734375 C 170.070312 225.75 170.3125 225.707031 170.539062 225.609375 C 171.953125 224.972656 173.425781 224.738281 174.964844 224.894531 C 175.578125 224.984375 176.070312 225.277344 176.441406 225.769531 C 176.617188 225.980469 176.683594 226.21875 176.644531 226.488281 C 176.617188 226.605469 176.585938 226.714844 176.546875 226.824219 C 176.339844 227.351562 176.257812 227.898438 176.304688 228.464844 C 176.441406 229.640625 177.3125 230.621094 178.65625 231.171875 C 178.859375 231.25 179.0625 231.320312 179.269531 231.394531 C 179.574219 231.472656 179.855469 231.59375 180.121094 231.761719 C 180.285156 231.964844 180.289062 232.171875 180.132812 232.382812 C 179.976562 232.589844 179.777344 232.648438 179.535156 232.546875 C 178.738281 232.039062 177.882812 231.917969 176.972656 232.183594 C 176.195312 232.382812 175.476562 232.710938 174.820312 233.164062 C 174.445312 232.105469 173.925781 231.125 173.261719 230.21875 C 173.195312 230.113281 173.117188 230.015625 173.03125 229.925781 C 172.019531 228.621094 170.785156 227.578125 169.328125 226.800781 C 167.875 226.019531 166.328125 225.570312 164.683594 225.453125 Z M 73.222656 249.0625 C 73.234375 248.824219 73.332031 248.625 73.515625 248.464844 C 74.078125 248.046875 75.03125 247.960938 75.996094 247.910156 C 77.375 247.8125 78.949219 247.625 80.179688 246.566406 C 81.644531 245.304688 82.199219 243.199219 81.695312 240.640625 C 81.601562 240.171875 81.492188 239.703125 81.378906 239.234375 C 81.09375 238.304688 80.964844 237.355469 80.996094 236.382812 C 81.0625 235.808594 81.316406 235.339844 81.753906 234.96875 C 81.894531 234.832031 82.0625 234.773438 82.257812 234.800781 C 82.789062 235.007812 83.246094 235.320312 83.632812 235.738281 C 84.53125 236.542969 85.753906 237.644531 87.488281 237.355469 C 88.847656 237.125 89.667969 236.132812 90.269531 235.410156 C 90.519531 235.046875 90.828125 234.746094 91.199219 234.511719 C 91.75 234.320312 92.90625 235.378906 93.285156 235.726562 C 94.695312 237.015625 96.898438 238.023438 98.839844 237.003906 C 99.019531 236.914062 99.171875 236.792969 99.304688 236.640625 C 99.433594 236.492188 99.535156 236.320312 99.601562 236.132812 C 99.667969 235.945312 99.695312 235.753906 99.691406 235.550781 C 99.683594 235.351562 99.640625 235.160156 99.558594 234.980469 C 99.003906 233.710938 98.433594 232.402344 98.457031 231.148438 C 98.457031 230.257812 98.964844 229.210938 99.71875 228.996094 C 100.347656 228.824219 101.207031 229.144531 102.113281 229.503906 C 102.40625 229.613281 102.695312 229.722656 102.984375 229.816406 C 103.488281 229.988281 106.210938 230.832031 107.96875 229.792969 C 108.667969 229.398438 109.097656 228.808594 109.257812 228.019531 C 109.605469 226.300781 109.152344 224.636719 108.691406 223.207031 L 108.617188 222.964844 C 108.207031 221.949219 108 220.898438 107.984375 219.804688 C 108.039062 219.003906 108.488281 218.253906 109.023438 218.136719 C 109.558594 218.023438 110.367188 218.46875 111.253906 219.003906 C 112.375 219.683594 113.644531 220.453125 115.222656 220.371094 C 116.707031 220.300781 118.804688 219.429688 120.359375 215.703125 L 120.457031 215.472656 C 121.046875 214.050781 121.65625 212.578125 122.703125 212.15625 C 123.992188 211.648438 125.765625 212.808594 127.167969 213.890625 C 127.417969 214.078125 127.699219 214.1875 128.011719 214.207031 C 128.535156 216.660156 129.265625 219.046875 130.207031 221.371094 C 125.722656 223.078125 120.378906 226 117.5 230.78125 C 113.101562 238.066406 115.097656 246.457031 116.160156 249.742188 L 73.640625 249.742188 C 73.5625 249.480469 73.421875 249.253906 73.222656 249.0625 Z M 308.035156 260.824219 L 66.789062 260.824219 L 66.789062 252.871094 L 308.035156 252.871094 Z M 308.035156 260.824219 " fill-opacity="1" fill-rule="nonzero"/></g><path fill="#232323" d="M 110.933594 240.535156 C 110.75 240.625 110.585938 240.75 110.449219 240.90625 C 110.316406 241.0625 110.214844 241.238281 110.148438 241.4375 C 110.082031 241.632812 110.054688 241.835938 110.070312 242.042969 C 110.082031 242.25 110.136719 242.445312 110.226562 242.632812 C 110.28125 242.742188 110.289062 242.855469 110.253906 242.972656 C 110.21875 243.089844 110.144531 243.175781 110.039062 243.234375 C 109.929688 243.292969 109.816406 243.308594 109.699219 243.273438 C 109.582031 243.242188 109.492188 243.171875 109.429688 243.066406 C 109.328125 242.902344 109.203125 242.761719 109.054688 242.644531 C 108.902344 242.527344 108.738281 242.4375 108.554688 242.382812 C 108.371094 242.324219 108.183594 242.304688 107.992188 242.316406 C 107.804688 242.328125 107.621094 242.371094 107.445312 242.449219 C 107.273438 242.527344 107.117188 242.636719 106.980469 242.773438 C 106.847656 242.90625 106.742188 243.0625 106.660156 243.238281 C 106.582031 243.414062 106.539062 243.59375 106.527344 243.785156 C 106.515625 243.976562 106.539062 244.164062 106.59375 244.347656 C 106.578125 244.570312 106.46875 244.726562 106.261719 244.816406 C 105.804688 244.917969 105.414062 244.800781 105.085938 244.464844 C 104.621094 243.96875 104.367188 243.378906 104.316406 242.703125 C 104.292969 242.496094 104.230469 242.300781 104.128906 242.121094 C 104.023438 241.941406 103.894531 241.785156 103.730469 241.65625 C 103.566406 241.527344 103.386719 241.4375 103.183594 241.382812 C 102.984375 241.324219 102.78125 241.308594 102.578125 241.335938 C 102.371094 241.359375 102.175781 241.425781 101.996094 241.527344 C 101.816406 241.628906 101.664062 241.761719 101.535156 241.925781 C 101.40625 242.089844 101.316406 242.273438 101.261719 242.472656 C 101.207031 242.671875 101.191406 242.875 101.214844 243.082031 C 101.351562 244.507812 101.925781 245.726562 102.933594 246.738281 C 103.789062 247.566406 104.808594 247.984375 105.992188 247.996094 C 106.460938 247.996094 106.910156 247.914062 107.347656 247.753906 C 108.09375 247.472656 108.6875 247 109.121094 246.328125 C 109.957031 246.503906 110.753906 246.394531 111.507812 245.988281 C 111.910156 245.761719 112.257812 245.46875 112.546875 245.113281 C 112.839844 244.753906 113.054688 244.355469 113.195312 243.914062 C 113.335938 243.472656 113.390625 243.023438 113.363281 242.5625 C 113.332031 242.101562 113.21875 241.664062 113.023438 241.242188 C 112.933594 241.058594 112.808594 240.898438 112.652344 240.761719 C 112.496094 240.625 112.320312 240.523438 112.125 240.457031 C 111.929688 240.390625 111.726562 240.363281 111.523438 240.378906 C 111.316406 240.390625 111.121094 240.445312 110.933594 240.535156 Z M 110.933594 240.535156 " fill-opacity="1" fill-rule="nonzero"/><path fill="#ffffff" d="M 209.6875 191.257812 L 205.472656 191.257812 L 201.035156 203.253906 L 205.25 203.253906 Z M 209.6875 191.257812 " fill-opacity="0.498" fill-rule="nonzero"/><path fill="#ffffff" d="M 218.941406 191.257812 L 211.058594 191.257812 L 206.605469 203.253906 L 213.78125 203.253906 C 214.121094 203.253906 214.453125 203.21875 214.785156 203.152344 C 215.117188 203.085938 215.4375 202.988281 215.75 202.859375 C 216.058594 202.730469 216.355469 202.574219 216.636719 202.382812 C 216.917969 202.195312 217.175781 201.984375 217.414062 201.742188 C 217.652344 201.503906 217.867188 201.246094 218.054688 200.964844 C 218.242188 200.683594 218.398438 200.386719 218.527344 200.074219 C 218.65625 199.761719 218.753906 199.4375 218.820312 199.105469 C 218.886719 198.773438 218.917969 198.441406 218.917969 198.101562 Z M 218.941406 191.257812 " fill-opacity="0.498" fill-rule="nonzero"/><path fill="#ffffff" d="M 157.660156 191.257812 L 153.441406 191.257812 L 149.007812 203.253906 L 153.226562 203.253906 Z M 157.660156 191.257812 " fill-opacity="0.498" fill-rule="nonzero"/><path fill="#ffffff" d="M 166.914062 191.257812 L 159.035156 191.257812 L 154.578125 203.253906 L 161.757812 203.253906 C 162.09375 203.253906 162.429688 203.21875 162.757812 203.152344 C 163.089844 203.085938 163.410156 202.988281 163.722656 202.859375 C 164.035156 202.730469 164.332031 202.574219 164.609375 202.382812 C 164.890625 202.195312 165.152344 201.984375 165.390625 201.742188 C 165.628906 201.503906 165.839844 201.246094 166.027344 200.964844 C 166.214844 200.683594 166.375 200.386719 166.503906 200.074219 C 166.632812 199.761719 166.730469 199.4375 166.796875 199.105469 C 166.859375 198.773438 166.894531 198.441406 166.894531 198.101562 Z M 166.914062 191.257812 " fill-opacity="0.498" fill-rule="nonzero"/></svg>