<svg xmlns="http://www.w3.org/2000/svg" xmlns:xlink="http://www.w3.org/1999/xlink" width="500" zoomAndPan="magnify" viewBox="0 0 375 374.999991" height="500" preserveAspectRatio="xMidYMid meet" version="1.0"><defs><g/><clipPath id="27cdc91fb0"><path d="M 78.941406 73 L 177 73 L 177 220.027344 L 78.941406 220.027344 Z M 78.941406 73 " clip-rule="nonzero"/></clipPath><clipPath id="0a035dbd86"><path d="M 197.742188 73 L 295.691406 73 L 295.691406 220.027344 L 197.742188 220.027344 Z M 197.742188 73 " clip-rule="nonzero"/></clipPath></defs><rect x="-37.5" width="450" fill="#ffffff" y="-37.499999" height="449.999989" fill-opacity="1"/><rect x="-37.5" width="450" fill="#ffffff" y="-37.499999" height="449.999989" fill-opacity="1"/><rect x="-37.5" width="450" fill="#fffcf9" y="-37.499999" height="449.999989" fill-opacity="1"/><path fill="#011429" d="M 160.144531 142.824219 C 160.144531 134.695312 160.140625 126.5625 160.140625 118.429688 C 159.75 118.453125 159.359375 118.464844 158.96875 118.464844 C 147.503906 118.464844 138.214844 109.140625 138.214844 97.644531 C 138.214844 86.144531 147.503906 76.824219 158.96875 76.824219 C 168.984375 76.824219 177.347656 83.949219 179.292969 93.425781 L 180.144531 93.425781 C 182.089844 83.949219 190.453125 76.824219 200.472656 76.824219 C 211.933594 76.824219 221.226562 86.144531 221.226562 97.644531 C 221.226562 107.398438 214.539062 115.585938 205.511719 117.84375 C 204.855469 118.070312 205.101562 118.28125 205.511719 118.28125 L 214.078125 118.28125 L 214.078125 127.222656 L 217.707031 127.222656 C 218.660156 124.652344 221.714844 123.066406 225.160156 122.410156 L 246.933594 118.257812 L 246.933594 146.734375 L 225.160156 142.582031 C 220.679688 141.726562 218.707031 140.003906 217.867188 137.765625 L 217.871094 137.769531 L 214.078125 137.769531 L 214.078125 144.355469 L 191.914062 144.355469 C 192.835938 145.65625 193.378906 147.242188 193.378906 148.957031 C 193.378906 150.195312 193.09375 151.371094 192.589844 152.417969 L 201.011719 152.417969 L 201.011719 157.113281 L 212.070312 176.898438 C 211.125 176.898438 210.183594 176.898438 209.242188 176.898438 L 191.300781 162.640625 L 186.808594 176.898438 C 185.902344 176.898438 184.992188 176.898438 184.085938 176.898438 L 179.597656 162.640625 L 161.652344 176.898438 C 160.710938 176.898438 159.765625 176.898438 158.824219 176.898438 L 169.882812 157.113281 L 169.882812 152.417969 L 178.304688 152.417969 C 177.800781 151.371094 177.519531 150.195312 177.519531 148.957031 C 177.519531 147.242188 178.058594 145.65625 178.980469 144.355469 L 160.144531 144.355469 L 160.144531 142.824219 " fill-opacity="1" fill-rule="evenodd"/><g clip-path="url(#27cdc91fb0)"><path fill="#011429" d="M 131.542969 214.527344 C 161.273438 223.84375 170.277344 199.285156 141.621094 187.050781 C 143.910156 197.429688 147.59375 203.335938 151.046875 206.128906 C 146.613281 206.011719 139.992188 208.113281 131.542969 214.527344 Z M 113.113281 204.246094 C 139.800781 220.335938 154.332031 198.609375 129.367188 179.9375 C 129.152344 190.5625 131.339844 197.171875 134.035156 200.703125 C 129.753906 199.539062 122.832031 200.015625 113.113281 204.246094 Z M 97.765625 189.792969 C 120.035156 211.617188 139.164062 193.835938 119.164062 169.898438 C 116.511719 180.1875 117.125 187.125 118.9375 191.183594 C 115.039062 189.0625 108.191406 187.921875 97.765625 189.792969 Z M 86.566406 171.101562 C 101.992188 198.230469 125.257812 186.414062 112.589844 157.882812 C 107.222656 167.042969 105.910156 173.878906 106.539062 178.28125 C 103.375 175.167969 97.101562 172.183594 86.566406 171.101562 Z M 80.132812 150.972656 C 88.816406 180.964844 114.1875 174.925781 108.515625 144.214844 C 101.164062 151.863281 98.292969 158.203125 97.882812 162.632812 C 95.527344 158.863281 90.125 154.492188 80.132812 150.972656 Z M 78.941406 129.730469 C 80.199219 160.9375 106.273438 161.183594 108.113281 130.003906 C 99.148438 135.660156 94.84375 141.125 93.382812 145.324219 C 92 141.097656 87.800781 135.550781 78.941406 129.730469 Z M 82.816406 108.957031 C 76.933594 139.632812 102.265625 145.847656 111.15625 115.910156 C 101.140625 119.363281 95.703125 123.695312 93.328125 127.449219 C 92.945312 123.019531 90.117188 116.65625 82.816406 108.957031 Z M 92 89.605469 C 78.796875 117.902344 101.84375 130.160156 117.785156 103.316406 C 107.226562 104.199219 100.898438 107.066406 97.671875 110.121094 C 98.386719 105.730469 97.199219 98.867188 92 89.605469 Z M 105.582031 73.171875 C 86.039062 97.511719 105.519531 114.921875 127.375 92.652344 C 116.90625 90.988281 110.078125 92.261719 106.222656 94.457031 C 107.957031 90.363281 108.433594 83.410156 105.582031 73.171875 Z M 151.898438 219.917969 C 182.988281 221.9375 185.964844 195.933594 155.230469 190.824219 C 159.898438 200.371094 164.867188 205.238281 168.878906 207.136719 C 164.542969 208.074219 158.601562 211.683594 151.898438 219.917969 " fill-opacity="1" fill-rule="evenodd"/></g><g clip-path="url(#0a035dbd86)"><path fill="#011429" d="M 243.09375 214.527344 C 213.367188 223.84375 204.359375 199.285156 233.019531 187.050781 C 230.726562 197.429688 227.042969 203.335938 223.589844 206.128906 C 228.023438 206.011719 234.644531 208.113281 243.09375 214.527344 Z M 261.527344 204.246094 C 234.835938 220.335938 220.304688 198.609375 245.269531 179.9375 C 245.488281 190.5625 243.296875 197.171875 240.601562 200.703125 C 244.882812 199.539062 251.808594 200.015625 261.527344 204.246094 Z M 276.871094 189.792969 C 254.601562 211.617188 235.472656 193.835938 255.476562 169.898438 C 258.125 180.1875 257.511719 187.125 255.703125 191.183594 C 259.597656 189.0625 266.445312 187.921875 276.871094 189.792969 Z M 288.070312 171.101562 C 272.644531 198.230469 249.382812 186.414062 262.046875 157.882812 C 267.414062 167.042969 268.730469 173.878906 268.097656 178.28125 C 271.265625 175.167969 277.535156 172.183594 288.070312 171.101562 Z M 294.503906 150.972656 C 285.820312 180.964844 260.449219 174.925781 266.121094 144.214844 C 273.472656 151.863281 276.34375 158.203125 276.757812 162.632812 C 279.109375 158.863281 284.511719 154.492188 294.503906 150.972656 Z M 295.695312 129.730469 C 294.4375 160.9375 268.363281 161.183594 266.523438 130.003906 C 275.492188 135.660156 279.792969 141.125 281.253906 145.324219 C 282.636719 141.097656 286.835938 135.550781 295.695312 129.730469 Z M 291.820312 108.957031 C 297.703125 139.632812 272.371094 145.847656 263.480469 115.910156 C 273.5 119.363281 278.933594 123.695312 281.3125 127.449219 C 281.691406 123.019531 284.519531 116.65625 291.820312 108.957031 Z M 282.636719 89.605469 C 295.839844 117.902344 272.792969 130.160156 256.851562 103.316406 C 267.410156 104.199219 273.742188 107.066406 276.964844 110.121094 C 276.253906 105.730469 277.4375 98.867188 282.636719 89.605469 Z M 269.058594 73.171875 C 288.597656 97.511719 269.117188 114.921875 247.261719 92.652344 C 257.730469 90.988281 264.558594 92.261719 268.414062 94.457031 C 266.683594 90.363281 266.207031 83.410156 269.058594 73.171875 Z M 222.738281 219.917969 C 191.648438 221.9375 188.671875 195.933594 219.40625 190.824219 C 214.738281 200.371094 209.769531 205.238281 205.757812 207.136719 C 210.09375 208.074219 216.035156 211.683594 222.738281 219.917969 " fill-opacity="1" fill-rule="evenodd"/></g><g fill="#011429" fill-opacity="1"><g transform="translate(148.193521, 256.974687)"><g><path d="M 14.535156 0 C 15.019531 0 15.203125 -0.304688 14.992188 -0.699219 L 9.488281 -12.984375 L 14.65625 -23.597656 C 14.871094 -24.023438 14.6875 -24.328125 14.230469 -24.328125 L 11.039062 -24.328125 C 10.703125 -24.328125 10.492188 -24.175781 10.339844 -23.871094 L 5.65625 -14.292969 L 5.65625 -23.71875 C 5.65625 -24.113281 5.441406 -24.328125 5.046875 -24.328125 L 2.128906 -24.328125 C 1.734375 -24.328125 1.519531 -24.113281 1.519531 -23.71875 L 1.519531 -0.609375 C 1.519531 -0.210938 1.734375 0 2.128906 0 L 5.046875 0 C 5.441406 0 5.65625 -0.210938 5.65625 -0.609375 L 5.65625 -7.328125 L 6.78125 -9.488281 L 10.613281 -0.457031 C 10.734375 -0.152344 10.945312 0 11.3125 0 Z M 14.535156 0 "/></g></g></g><g fill="#011429" fill-opacity="1"><g transform="translate(172.457902, 256.974687)"><g><path d="M 2.007812 -24.328125 C 1.671875 -24.328125 1.519531 -24.144531 1.519531 -23.839844 L 1.519531 -0.488281 C 1.519531 -0.183594 1.671875 0 2.007812 0 L 5.167969 0 C 5.472656 0 5.65625 -0.183594 5.65625 -0.488281 L 5.65625 -23.839844 C 5.65625 -24.144531 5.472656 -24.328125 5.167969 -24.328125 Z M 2.007812 -24.328125 "/></g></g></g><g fill="#011429" fill-opacity="1"><g transform="translate(187.601447, 256.974687)"><g><path d="M 10.855469 -24.328125 C 10.519531 -24.328125 10.367188 -24.144531 10.367188 -23.839844 L 10.367188 -11.007812 L 10.1875 -11.007812 L 5.566406 -23.929688 C 5.472656 -24.203125 5.289062 -24.328125 5.015625 -24.328125 L 2.007812 -24.328125 C 1.703125 -24.328125 1.519531 -24.144531 1.519531 -23.839844 L 1.519531 -0.488281 C 1.519531 -0.183594 1.703125 0 2.007812 0 L 5.167969 0 C 5.503906 0 5.65625 -0.183594 5.65625 -0.488281 L 5.65625 -13.378906 L 5.808594 -13.378906 L 10.460938 -0.394531 C 10.550781 -0.121094 10.734375 0 11.007812 0 L 14.019531 0 C 14.320312 0 14.503906 -0.183594 14.503906 -0.488281 L 14.503906 -23.839844 C 14.503906 -24.144531 14.320312 -24.328125 14.019531 -24.328125 Z M 10.855469 -24.328125 "/></g></g></g><g fill="#011429" fill-opacity="1"><g transform="translate(211.592199, 256.974687)"><g><path d="M 1.519531 -4.378906 C 1.519531 -1.519531 3.039062 0 5.898438 0 L 9.304688 0 C 12.164062 0 13.683594 -1.519531 13.683594 -4.378906 L 13.683594 -19.949219 C 13.683594 -22.804688 12.164062 -24.328125 9.304688 -24.328125 L 5.898438 -24.328125 C 3.039062 -24.328125 1.519531 -22.804688 1.519531 -19.949219 Z M 6.78125 -3.921875 C 5.992188 -3.921875 5.566406 -4.316406 5.566406 -5.140625 L 5.566406 -19.1875 C 5.566406 -19.976562 5.992188 -20.402344 6.78125 -20.402344 L 8.542969 -20.402344 C 9.335938 -20.402344 9.761719 -19.976562 9.761719 -19.1875 L 9.761719 -5.140625 C 9.761719 -4.316406 9.335938 -3.921875 8.542969 -3.921875 Z M 6.78125 -3.921875 "/></g></g></g></svg>